<svg width="1920" height="14122" viewBox="0 0 1920 14122" fill="none" xmlns="http://www.w3.org/2000/svg">
<g clip-path="url(#clip0_18_1666)">
<mask id="mask0_18_1666" style="mask-type:luminance" maskUnits="userSpaceOnUse" x="0" y="0" width="1920" height="14122">
<path d="M1920 0H0V14122H1920V0Z" fill="white"/>
</mask>
<g mask="url(#mask0_18_1666)">
<mask id="mask1_18_1666" style="mask-type:luminance" maskUnits="userSpaceOnUse" x="0" y="0" width="1920" height="14122">
<path d="M1920 0H0V14121.3H1920V0Z" fill="white"/>
</mask>
<g mask="url(#mask1_18_1666)">
<mask id="mask2_18_1666" style="mask-type:luminance" maskUnits="userSpaceOnUse" x="0" y="0" width="1920" height="14122">
<path d="M1920 0H0V14121.3H1920V0Z" fill="white"/>
</mask>
<g mask="url(#mask2_18_1666)">
<g filter="url(#filter0_f_18_1666)">
<path d="M-154.664 1558.67C176.707 1558.67 445.336 1290.04 445.336 958.667C445.336 627.296 176.707 358.667 -154.664 358.667C-486.035 358.667 -754.664 627.296 -754.664 958.667C-754.664 1290.04 -486.035 1558.67 -154.664 1558.67Z" fill="#203CC8"/>
</g>
<g filter="url(#filter1_f_18_1666)">
<path d="M-154.664 1558.67C176.707 1558.67 445.336 1290.04 445.336 958.667C445.336 627.296 176.707 358.667 -154.664 358.667C-486.035 358.667 -754.664 627.296 -754.664 958.667C-754.664 1290.04 -486.035 1558.67 -154.664 1558.67Z" fill="#203CC8"/>
</g>
<g filter="url(#filter2_f_18_1666)">
<path d="M1391.33 296C1729.7 296 2004 21.6996 2004 -316.667C2004 -655.034 1729.7 -929.334 1391.33 -929.334C1052.96 -929.334 778.664 -655.034 778.664 -316.667C778.664 21.6996 1052.96 296 1391.33 296Z" fill="#6AC820"/>
</g>
<g filter="url(#filter3_f_18_1666)">
<path d="M1235.33 3744C1573.7 3744 1848 3469.7 1848 3131.33C1848 2792.96 1573.7 2518.66 1235.33 2518.66C896.964 2518.66 622.664 2792.96 622.664 3131.33C622.664 3469.7 896.964 3744 1235.33 3744Z" fill="#B020C8"/>
</g>
<g filter="url(#filter4_f_18_1666)">
<path d="M63.3312 5741.34C401.698 5741.34 675.998 5467.04 675.998 5128.67C675.998 4790.3 401.698 4516 63.3312 4516C-275.036 4516 -549.336 4790.3 -549.336 5128.67C-549.336 5467.04 -275.036 5741.34 63.3312 5741.34Z" fill="#008A71"/>
</g>
<g filter="url(#filter5_f_18_1666)">
<path d="M1934 6582.67C2272.37 6582.67 2546.67 6308.37 2546.67 5970C2546.67 5631.63 2272.37 5357.33 1934 5357.33C1595.63 5357.33 1321.33 5631.63 1321.33 5970C1321.33 6308.37 1595.63 6582.67 1934 6582.67Z" fill="#9AC84F"/>
</g>
<g filter="url(#filter6_f_18_1666)">
<path d="M122.003 7880C460.37 7880 734.67 7605.7 734.67 7267.33C734.67 6928.96 460.37 6654.66 122.003 6654.66C-216.364 6654.66 -490.664 6928.96 -490.664 7267.33C-490.664 7605.7 -216.364 7880 122.003 7880Z" fill="#2063C8"/>
</g>
<g filter="url(#filter7_f_18_1666)">
<path d="M-307.329 12410.6C-645.696 12410.6 -919.996 12136.3 -919.996 11798C-919.996 11459.6 -645.696 11185.3 -307.329 11185.3C31.0374 11185.3 305.338 11459.6 305.338 11798C305.338 12136.3 31.0374 12410.6 -307.329 12410.6Z" fill="#C8A320"/>
</g>
<g filter="url(#filter8_f_18_1666)">
<path d="M2096.66 12909.3C1758.29 12909.3 1483.99 12635 1483.99 12296.7C1483.99 11958.3 1758.29 11684 2096.66 11684C2435.03 11684 2709.33 11958.3 2709.33 12296.7C2709.33 12635 2435.03 12909.3 2096.66 12909.3Z" fill="#2045C8"/>
</g>
<path d="M11.8945 4783.17V4779.08" stroke="black" stroke-width="3" stroke-linecap="round"/>
</g>
</g>
</g>
<mask id="mask3_18_1666" style="mask-type:luminance" maskUnits="userSpaceOnUse" x="0" y="0" width="1920" height="14122">
<path d="M1920 0H0V14122H1920V0Z" fill="white"/>
</mask>
<g mask="url(#mask3_18_1666)">
<mask id="mask4_18_1666" style="mask-type:luminance" maskUnits="userSpaceOnUse" x="0" y="0" width="1920" height="14122">
<path d="M1920 0H0V14121.3H1920V0Z" fill="white"/>
</mask>
<g mask="url(#mask4_18_1666)">
<mask id="mask5_18_1666" style="mask-type:luminance" maskUnits="userSpaceOnUse" x="0" y="0" width="1920" height="14122">
<path d="M1920 0H0V14121.3H1920V0Z" fill="white"/>
</mask>
<g mask="url(#mask5_18_1666)">
<g filter="url(#filter9_f_18_1666)">
<path d="M-154.664 1558.67C176.707 1558.67 445.336 1290.04 445.336 958.667C445.336 627.296 176.707 358.667 -154.664 358.667C-486.035 358.667 -754.664 627.296 -754.664 958.667C-754.664 1290.04 -486.035 1558.67 -154.664 1558.67Z" fill="#203CC8"/>
</g>
<g filter="url(#filter10_f_18_1666)">
<path d="M-154.664 1558.67C176.707 1558.67 445.336 1290.04 445.336 958.667C445.336 627.296 176.707 358.667 -154.664 358.667C-486.035 358.667 -754.664 627.296 -754.664 958.667C-754.664 1290.04 -486.035 1558.67 -154.664 1558.67Z" fill="#203CC8"/>
</g>
<g filter="url(#filter11_f_18_1666)">
<path d="M1391.33 296C1729.7 296 2004 21.6996 2004 -316.667C2004 -655.034 1729.7 -929.334 1391.33 -929.334C1052.96 -929.334 778.664 -655.034 778.664 -316.667C778.664 21.6996 1052.96 296 1391.33 296Z" fill="#6AC820"/>
</g>
<g filter="url(#filter12_f_18_1666)">
<path d="M1235.33 3744C1573.7 3744 1848 3469.7 1848 3131.33C1848 2792.96 1573.7 2518.66 1235.33 2518.66C896.964 2518.66 622.664 2792.96 622.664 3131.33C622.664 3469.7 896.964 3744 1235.33 3744Z" fill="#B020C8"/>
</g>
<g filter="url(#filter13_f_18_1666)">
<path d="M63.3312 5741.34C401.698 5741.34 675.998 5467.04 675.998 5128.67C675.998 4790.3 401.698 4516 63.3312 4516C-275.036 4516 -549.336 4790.3 -549.336 5128.67C-549.336 5467.04 -275.036 5741.34 63.3312 5741.34Z" fill="#008A71"/>
</g>
<g filter="url(#filter14_f_18_1666)">
<path d="M1934 6582.67C2272.37 6582.67 2546.67 6308.37 2546.67 5970C2546.67 5631.63 2272.37 5357.33 1934 5357.33C1595.63 5357.33 1321.33 5631.63 1321.33 5970C1321.33 6308.37 1595.63 6582.67 1934 6582.67Z" fill="#9AC84F"/>
</g>
<g filter="url(#filter15_f_18_1666)">
<path d="M122.003 7880C460.37 7880 734.67 7605.7 734.67 7267.33C734.67 6928.96 460.37 6654.66 122.003 6654.66C-216.364 6654.66 -490.664 6928.96 -490.664 7267.33C-490.664 7605.7 -216.364 7880 122.003 7880Z" fill="#2063C8"/>
</g>
<g filter="url(#filter16_f_18_1666)">
<path d="M-307.329 12410.6C-645.696 12410.6 -919.996 12136.3 -919.996 11798C-919.996 11459.6 -645.696 11185.3 -307.329 11185.3C31.0374 11185.3 305.338 11459.6 305.338 11798C305.338 12136.3 31.0374 12410.6 -307.329 12410.6Z" fill="#C8A320"/>
</g>
<g filter="url(#filter17_f_18_1666)">
<path d="M2096.66 12909.3C1758.29 12909.3 1483.99 12635 1483.99 12296.7C1483.99 11958.3 1758.29 11684 2096.66 11684C2435.03 11684 2709.33 11958.3 2709.33 12296.7C2709.33 12635 2435.03 12909.3 2096.66 12909.3Z" fill="#2045C8"/>
</g>
<path d="M11.8945 4783.17V4779.08" stroke="black" stroke-width="3" stroke-linecap="round"/>
</g>
</g>
</g>
</g>
<defs>
<filter id="filter0_f_18_1666" x="-2088" y="-974.667" width="3866.67" height="3866.67" filterUnits="userSpaceOnUse" color-interpolation-filters="sRGB">
<feFlood flood-opacity="0" result="BackgroundImageFix"/>
<feBlend mode="normal" in="SourceGraphic" in2="BackgroundImageFix" result="shape"/>
<feGaussianBlur stdDeviation="666.667" result="effect1_foregroundBlur_18_1666"/>
</filter>
<filter id="filter1_f_18_1666" x="-2088" y="-974.667" width="3866.67" height="3866.67" filterUnits="userSpaceOnUse" color-interpolation-filters="sRGB">
<feFlood flood-opacity="0" result="BackgroundImageFix"/>
<feBlend mode="normal" in="SourceGraphic" in2="BackgroundImageFix" result="shape"/>
<feGaussianBlur stdDeviation="666.667" result="effect1_foregroundBlur_18_1666"/>
</filter>
<filter id="filter2_f_18_1666" x="-554.67" y="-2262.67" width="3892" height="3892" filterUnits="userSpaceOnUse" color-interpolation-filters="sRGB">
<feFlood flood-opacity="0" result="BackgroundImageFix"/>
<feBlend mode="normal" in="SourceGraphic" in2="BackgroundImageFix" result="shape"/>
<feGaussianBlur stdDeviation="666.667" result="effect1_foregroundBlur_18_1666"/>
</filter>
<filter id="filter3_f_18_1666" x="-710.67" y="1185.33" width="3892" height="3892.01" filterUnits="userSpaceOnUse" color-interpolation-filters="sRGB">
<feFlood flood-opacity="0" result="BackgroundImageFix"/>
<feBlend mode="normal" in="SourceGraphic" in2="BackgroundImageFix" result="shape"/>
<feGaussianBlur stdDeviation="666.667" result="effect1_foregroundBlur_18_1666"/>
</filter>
<filter id="filter4_f_18_1666" x="-1882.67" y="3182.67" width="3892" height="3892.01" filterUnits="userSpaceOnUse" color-interpolation-filters="sRGB">
<feFlood flood-opacity="0" result="BackgroundImageFix"/>
<feBlend mode="normal" in="SourceGraphic" in2="BackgroundImageFix" result="shape"/>
<feGaussianBlur stdDeviation="666.667" result="effect1_foregroundBlur_18_1666"/>
</filter>
<filter id="filter5_f_18_1666" x="-12.0059" y="4024" width="3892.01" height="3892.01" filterUnits="userSpaceOnUse" color-interpolation-filters="sRGB">
<feFlood flood-opacity="0" result="BackgroundImageFix"/>
<feBlend mode="normal" in="SourceGraphic" in2="BackgroundImageFix" result="shape"/>
<feGaussianBlur stdDeviation="666.667" result="effect1_foregroundBlur_18_1666"/>
</filter>
<filter id="filter6_f_18_1666" x="-1824" y="5321.33" width="3892" height="3892.01" filterUnits="userSpaceOnUse" color-interpolation-filters="sRGB">
<feFlood flood-opacity="0" result="BackgroundImageFix"/>
<feBlend mode="normal" in="SourceGraphic" in2="BackgroundImageFix" result="shape"/>
<feGaussianBlur stdDeviation="666.667" result="effect1_foregroundBlur_18_1666"/>
</filter>
<filter id="filter7_f_18_1666" x="-2253.33" y="9851.97" width="3892" height="3891.97" filterUnits="userSpaceOnUse" color-interpolation-filters="sRGB">
<feFlood flood-opacity="0" result="BackgroundImageFix"/>
<feBlend mode="normal" in="SourceGraphic" in2="BackgroundImageFix" result="shape"/>
<feGaussianBlur stdDeviation="666.667" result="effect1_foregroundBlur_18_1666"/>
</filter>
<filter id="filter8_f_18_1666" x="150.654" y="10350.7" width="3892.01" height="3891.97" filterUnits="userSpaceOnUse" color-interpolation-filters="sRGB">
<feFlood flood-opacity="0" result="BackgroundImageFix"/>
<feBlend mode="normal" in="SourceGraphic" in2="BackgroundImageFix" result="shape"/>
<feGaussianBlur stdDeviation="666.667" result="effect1_foregroundBlur_18_1666"/>
</filter>
<filter id="filter9_f_18_1666" x="-2088" y="-974.667" width="3866.67" height="3866.67" filterUnits="userSpaceOnUse" color-interpolation-filters="sRGB">
<feFlood flood-opacity="0" result="BackgroundImageFix"/>
<feBlend mode="normal" in="SourceGraphic" in2="BackgroundImageFix" result="shape"/>
<feGaussianBlur stdDeviation="666.667" result="effect1_foregroundBlur_18_1666"/>
</filter>
<filter id="filter10_f_18_1666" x="-2088" y="-974.667" width="3866.67" height="3866.67" filterUnits="userSpaceOnUse" color-interpolation-filters="sRGB">
<feFlood flood-opacity="0" result="BackgroundImageFix"/>
<feBlend mode="normal" in="SourceGraphic" in2="BackgroundImageFix" result="shape"/>
<feGaussianBlur stdDeviation="666.667" result="effect1_foregroundBlur_18_1666"/>
</filter>
<filter id="filter11_f_18_1666" x="-554.67" y="-2262.67" width="3892" height="3892" filterUnits="userSpaceOnUse" color-interpolation-filters="sRGB">
<feFlood flood-opacity="0" result="BackgroundImageFix"/>
<feBlend mode="normal" in="SourceGraphic" in2="BackgroundImageFix" result="shape"/>
<feGaussianBlur stdDeviation="666.667" result="effect1_foregroundBlur_18_1666"/>
</filter>
<filter id="filter12_f_18_1666" x="-710.67" y="1185.33" width="3892" height="3892.01" filterUnits="userSpaceOnUse" color-interpolation-filters="sRGB">
<feFlood flood-opacity="0" result="BackgroundImageFix"/>
<feBlend mode="normal" in="SourceGraphic" in2="BackgroundImageFix" result="shape"/>
<feGaussianBlur stdDeviation="666.667" result="effect1_foregroundBlur_18_1666"/>
</filter>
<filter id="filter13_f_18_1666" x="-1882.67" y="3182.67" width="3892" height="3892.01" filterUnits="userSpaceOnUse" color-interpolation-filters="sRGB">
<feFlood flood-opacity="0" result="BackgroundImageFix"/>
<feBlend mode="normal" in="SourceGraphic" in2="BackgroundImageFix" result="shape"/>
<feGaussianBlur stdDeviation="666.667" result="effect1_foregroundBlur_18_1666"/>
</filter>
<filter id="filter14_f_18_1666" x="-12.0059" y="4024" width="3892.01" height="3892.01" filterUnits="userSpaceOnUse" color-interpolation-filters="sRGB">
<feFlood flood-opacity="0" result="BackgroundImageFix"/>
<feBlend mode="normal" in="SourceGraphic" in2="BackgroundImageFix" result="shape"/>
<feGaussianBlur stdDeviation="666.667" result="effect1_foregroundBlur_18_1666"/>
</filter>
<filter id="filter15_f_18_1666" x="-1824" y="5321.33" width="3892" height="3892.01" filterUnits="userSpaceOnUse" color-interpolation-filters="sRGB">
<feFlood flood-opacity="0" result="BackgroundImageFix"/>
<feBlend mode="normal" in="SourceGraphic" in2="BackgroundImageFix" result="shape"/>
<feGaussianBlur stdDeviation="666.667" result="effect1_foregroundBlur_18_1666"/>
</filter>
<filter id="filter16_f_18_1666" x="-2253.33" y="9851.97" width="3892" height="3891.97" filterUnits="userSpaceOnUse" color-interpolation-filters="sRGB">
<feFlood flood-opacity="0" result="BackgroundImageFix"/>
<feBlend mode="normal" in="SourceGraphic" in2="BackgroundImageFix" result="shape"/>
<feGaussianBlur stdDeviation="666.667" result="effect1_foregroundBlur_18_1666"/>
</filter>
<filter id="filter17_f_18_1666" x="150.654" y="10350.7" width="3892.01" height="3891.97" filterUnits="userSpaceOnUse" color-interpolation-filters="sRGB">
<feFlood flood-opacity="0" result="BackgroundImageFix"/>
<feBlend mode="normal" in="SourceGraphic" in2="BackgroundImageFix" result="shape"/>
<feGaussianBlur stdDeviation="666.667" result="effect1_foregroundBlur_18_1666"/>
</filter>
<clipPath id="clip0_18_1666">
<rect width="1920" height="14122" fill="white"/>
</clipPath>
</defs>
</svg>
