<svg width="28" height="27" viewBox="0 0 28 27" fill="none" xmlns="http://www.w3.org/2000/svg">
<path fill-rule="evenodd" clip-rule="evenodd" d="M1.05715 0.390036C1.57785 -0.130663 2.42207 -0.130663 2.94277 0.390036L14 11.4472L25.0571 0.390036C25.5779 -0.130663 26.4221 -0.130663 26.9428 0.390036C27.4635 0.910735 27.4635 1.75496 26.9428 2.27565L15.8856 13.3328L26.9428 24.39C27.4635 24.9107 27.4635 25.755 26.9428 26.2757C26.4221 26.7964 25.5779 26.7964 25.0571 26.2757L14 15.2185L2.94277 26.2757C2.42207 26.7964 1.57785 26.7964 1.05715 26.2757C0.536451 25.755 0.536451 24.9107 1.05715 24.39L12.1143 13.3328L1.05715 2.27565C0.536451 1.75496 0.536451 0.910735 1.05715 0.390036Z" fill="white"/>
</svg>
