<svg width="67" height="68" viewBox="0 0 67 68" fill="none" xmlns="http://www.w3.org/2000/svg">
<path fill-rule="evenodd" clip-rule="evenodd" d="M59.2293 53.5562C58.0738 56.4599 55.8367 58.697 52.9182 59.8673C49.1698 61.354 41.0074 61.2713 35.713 61.2177L35.7115 61.2176C34.8337 61.2088 34.0347 61.2007 33.3478 61.2007C32.6737 61.2007 31.8913 61.2082 31.0322 61.2164C25.7365 61.2672 17.5251 61.346 13.7775 59.8673C10.8738 58.7118 8.63672 56.4747 7.46635 53.5562C5.97967 49.8078 6.06237 41.6454 6.11602 36.351C6.12492 35.4726 6.13302 34.6731 6.13302 33.9858C6.13302 33.3117 6.12551 32.5293 6.11727 31.6702C6.06647 26.3745 5.98771 18.1631 7.46635 14.4155C8.6219 11.5118 10.8589 9.27474 13.7775 8.10436C17.5259 6.61769 25.6882 6.70039 30.9827 6.75403C31.8611 6.76293 32.6606 6.77103 33.3478 6.77103C34.022 6.77103 34.8043 6.76353 35.6634 6.75529C40.9592 6.70449 49.1706 6.62572 52.9182 8.10436C55.8219 9.25992 58.0589 11.497 59.2293 14.4155C60.716 18.1639 60.6333 26.3262 60.5796 31.6207L60.5796 31.6222C60.5707 32.5 60.5626 33.299 60.5626 33.9858C60.5626 34.6729 60.5707 35.4727 60.5796 36.3513C60.6333 41.6486 60.716 49.8204 59.2293 53.5562ZM16.3256 33.9858C16.3256 24.5636 23.9256 16.9636 33.3478 16.9636C42.7701 16.9636 50.3701 24.5636 50.3701 33.9858C50.3701 43.4081 42.7701 51.0081 33.3478 51.0081C23.9256 51.0081 16.3256 43.4081 16.3256 33.9858ZM51.0664 20.2377C53.2589 20.2377 55.0367 18.4747 55.0367 16.2673C55.0367 14.0747 53.2589 12.297 51.0664 12.297C48.8738 12.297 47.096 14.0747 47.096 16.2673C47.096 18.4599 48.8589 20.2377 51.0664 20.2377Z" fill="#26334B"/>
<path d="M33.3478 45.0525C27.2589 45.0525 22.2812 40.0896 22.2812 33.9858C22.2812 27.8821 27.2441 22.9192 33.3478 22.9192C39.4515 22.9192 44.4145 27.8821 44.4145 33.9858C44.4145 40.0896 39.4367 45.0525 33.3478 45.0525Z" fill="#26334B"/>
<path fill-rule="evenodd" clip-rule="evenodd" d="M66.3108 20.297C66.0589 14.9784 64.8441 10.2673 60.9478 6.38585C57.0663 2.50436 52.3552 1.28955 47.0367 1.02288C41.5552 0.711773 25.1256 0.711773 19.6441 1.02288C14.3404 1.27474 9.62931 2.48955 5.73302 6.37103C1.83672 10.2525 0.636719 14.9636 0.370052 20.2821C0.058941 25.7636 0.058941 42.1933 0.370052 47.6747C0.621904 52.9933 1.83672 57.7044 5.73302 61.5858C9.62931 65.4673 14.3256 66.6821 19.6441 66.9488C25.1256 67.2599 41.5552 67.2599 47.0367 66.9488C52.3552 66.697 57.0663 65.4821 60.9478 61.5858C64.8293 57.7044 66.0441 52.9933 66.3108 47.6747C66.6219 42.1933 66.6219 25.7784 66.3108 20.297ZM59.2293 53.5562C58.0738 56.4599 55.8367 58.697 52.9182 59.8673C49.1698 61.354 41.0074 61.2713 35.713 61.2177L35.7115 61.2176C34.8337 61.2088 34.0347 61.2007 33.3478 61.2007C32.6737 61.2007 31.8913 61.2082 31.0322 61.2164C25.7365 61.2672 17.5251 61.346 13.7775 59.8673C10.8738 58.7118 8.63672 56.4747 7.46635 53.5562C5.97967 49.8078 6.06237 41.6454 6.11602 36.351C6.12492 35.4726 6.13302 34.6731 6.13302 33.9858C6.13302 33.3117 6.12551 32.5293 6.11727 31.6702C6.06647 26.3745 5.98771 18.1631 7.46635 14.4155C8.6219 11.5118 10.8589 9.27474 13.7775 8.10436C17.5259 6.61769 25.6882 6.70039 30.9827 6.75403C31.8611 6.76293 32.6606 6.77103 33.3478 6.77103C34.022 6.77103 34.8043 6.76353 35.6634 6.75529C40.9592 6.70449 49.1706 6.62572 52.9182 8.10436C55.8219 9.25992 58.0589 11.497 59.2293 14.4155C60.716 18.1639 60.6333 26.3262 60.5796 31.6207L60.5796 31.6222C60.5707 32.5 60.5626 33.299 60.5626 33.9858C60.5626 34.6729 60.5707 35.4727 60.5796 36.3513C60.6333 41.6486 60.716 49.8204 59.2293 53.5562Z" fill="#26334B"/>
</svg>
