<svg width="34" height="34" viewBox="0 0 34 34" fill="none" xmlns="http://www.w3.org/2000/svg">
<g clip-path="url(#clip0_35_1734)">
<path fill-rule="evenodd" clip-rule="evenodd" d="M30.2815 27.1106C29.7037 28.5625 28.5852 29.681 27.126 30.2662C25.2517 31.0095 21.1706 30.9682 18.5233 30.9413C18.5236 30.9413 18.5231 30.9413 18.5233 30.9413C18.0844 30.9369 17.6842 30.9329 17.3408 30.9329C17.0037 30.9329 16.6125 30.9366 16.183 30.9407C13.5351 30.9661 9.42934 31.0055 7.55555 30.2662C6.1037 29.6884 4.98518 28.5699 4.39999 27.1106C3.65666 25.2364 3.698 21.1552 3.72483 18.508C3.72928 18.0688 3.73333 17.6691 3.73333 17.3254C3.73333 16.9884 3.72957 16.5972 3.72545 16.1676C3.70005 13.5198 3.66067 9.41408 4.39999 7.54029C4.97777 6.08844 6.09629 4.96992 7.55555 4.38473C9.42977 3.64139 13.511 3.68274 16.1582 3.70957C16.5974 3.71402 16.9971 3.71807 17.3408 3.71807C17.6778 3.71807 18.069 3.71431 18.4986 3.71019C21.1464 3.68479 25.2522 3.64541 27.126 4.38473C28.5778 4.96251 29.6963 6.08103 30.2815 7.54029C31.0248 9.41451 30.9835 13.4956 30.9567 16.1429C30.9567 16.1427 30.9567 16.1431 30.9567 16.1429C30.9522 16.5818 30.9482 16.982 30.9482 17.3254C30.9482 17.669 30.9522 18.0687 30.9567 18.508C30.9835 21.1566 31.0249 25.2427 30.2815 27.1106ZM8.82962 17.3254C8.82962 12.6143 12.6297 8.81436 17.3408 8.81436C22.0519 8.81436 25.8519 12.6143 25.8519 17.3254C25.8519 22.0366 22.0519 25.8366 17.3408 25.8366C12.6297 25.8366 8.82962 22.0366 8.82962 17.3254ZM26.2 10.4514C27.2963 10.4514 28.1852 9.56992 28.1852 8.46621C28.1852 7.36992 27.2963 6.48103 26.2 6.48103C25.1037 6.48103 24.2148 7.36992 24.2148 8.46621C24.2148 9.56251 25.0963 10.4514 26.2 10.4514Z" fill="white" fill-opacity="0.7"/>
<path d="M17.3408 22.8588C14.2963 22.8588 11.8074 20.3773 11.8074 17.3254C11.8074 14.2736 14.2889 11.7921 17.3408 11.7921C20.3926 11.7921 22.8741 14.2736 22.8741 17.3254C22.8741 20.3773 20.3852 22.8588 17.3408 22.8588Z" fill="white" fill-opacity="0.7"/>
<path fill-rule="evenodd" clip-rule="evenodd" d="M33.8221 10.481C33.6962 7.82174 33.0888 5.46618 31.1407 3.52544C29.1999 1.5847 26.8444 0.977295 24.1851 0.843962C21.4444 0.688406 13.2296 0.688406 10.4888 0.843962C7.83696 0.969888 5.4814 1.57729 3.53326 3.51804C1.58511 5.45878 0.985107 7.81433 0.851774 10.4736C0.696219 13.2143 0.696219 21.4291 0.851774 24.1699C0.9777 26.8291 1.58511 29.1847 3.53326 31.1254C5.4814 33.0662 7.82955 33.6736 10.4888 33.8069C13.2296 33.9625 21.4444 33.9625 24.1851 33.8069C26.8444 33.681 29.1999 33.0736 31.1407 31.1254C33.0814 29.1847 33.6888 26.8291 33.8221 24.1699C33.9777 21.4291 33.9777 13.2217 33.8221 10.481ZM30.2814 27.1106C29.7036 28.5625 28.5851 29.681 27.1259 30.2662C25.2516 31.0095 21.1705 30.9682 18.5232 30.9413C18.0843 30.9369 17.6841 30.9329 17.3407 30.9329C17.0036 30.9329 16.6124 30.9366 16.1829 30.9407C13.535 30.9661 9.42927 31.0055 7.55548 30.2662C6.10363 29.6884 4.98511 28.5699 4.39992 27.1106C3.65659 25.2364 3.69793 21.1552 3.72476 18.508C3.72921 18.0688 3.73326 17.6691 3.73326 17.3254C3.73326 16.9884 3.7295 16.5972 3.72538 16.1676C3.69998 13.5198 3.6606 9.41405 4.39992 7.54026C4.9777 6.08841 6.09622 4.96989 7.55548 4.3847C9.4297 3.64136 13.5109 3.68271 16.1581 3.70954C16.5973 3.71399 16.997 3.71804 17.3407 3.71804C17.6777 3.71804 18.0689 3.71428 18.4985 3.71016C21.1463 3.68476 25.2521 3.64538 27.1259 4.3847C28.5777 4.96248 29.6962 6.081 30.2814 7.54026C31.0247 9.41448 30.9834 13.4956 30.9566 16.1429C30.9521 16.5818 30.9481 16.982 30.9481 17.3254C30.9481 17.669 30.9521 18.0687 30.9566 18.508C30.9834 21.1566 31.0248 25.2427 30.2814 27.1106Z" fill="white" fill-opacity="0.7"/>
</g>
<defs>
<clipPath id="clip0_35_1734">
<rect width="34" height="34" fill="white"/>
</clipPath>
</defs>
</svg>
