<svg width="68" height="80" viewBox="0 0 68 80" fill="none" xmlns="http://www.w3.org/2000/svg">
<g clip-path="url(#clip0_82_627)">
<path fill-rule="evenodd" clip-rule="evenodd" d="M31.8017 79.2122L31.9071 79.2937C33.137 80.2354 34.863 80.2354 36.0929 79.2937L36.4727 78.9975C36.7095 78.8111 37.0515 78.539 37.4839 78.1879C38.3483 77.4858 39.5752 76.4664 41.044 75.1825C43.9768 72.6189 47.8973 68.9803 51.8289 64.6913C55.7505 60.413 59.7484 55.4172 62.7814 50.1356C65.7962 44.886 68 39.1091 68 33.3333C68 14.9238 52.7777 0 34 0C15.2223 0 0 14.9238 0 33.3333C0 39.1091 2.20381 44.886 5.21855 50.1356C8.25163 55.4172 12.2495 60.413 16.1711 64.6913C20.1027 68.9803 24.0232 72.6189 26.9561 75.1825C28.4248 76.4664 29.6517 77.4858 30.5161 78.1879C30.9485 78.539 31.2905 78.8111 31.5273 78.9975C31.6457 79.0908 31.7378 79.1626 31.8017 79.2122Z" fill="#0D4E5C"/>
<circle cx="34" cy="34" r="22" fill="url(#paint0_linear_82_627)"/>
<path d="M31.304 27.688C32.952 27.688 34.36 28.304 35.528 29.536C36.696 30.752 37.28 32.24 37.28 34C37.28 35.776 36.696 37.272 35.528 38.488C34.36 39.704 32.952 40.312 31.304 40.312C29.48 40.312 28.08 39.64 27.104 38.296V44.8H24.512V28H27.104V29.728C28.08 28.368 29.48 27.688 31.304 27.688ZM28.184 36.76C28.904 37.48 29.808 37.84 30.896 37.84C31.984 37.84 32.888 37.48 33.608 36.76C34.328 36.024 34.688 35.104 34.688 34C34.688 32.896 34.328 31.984 33.608 31.264C32.888 30.528 31.984 30.16 30.896 30.16C29.808 30.16 28.904 30.528 28.184 31.264C27.464 31.984 27.104 32.896 27.104 34C27.104 35.104 27.464 36.024 28.184 36.76ZM39.6292 40V22.48H42.2212V40H39.6292Z" fill="#00252D"/>
</g>
<defs>
<linearGradient id="paint0_linear_82_627" x1="12" y1="12" x2="59.3032" y2="15.8962" gradientUnits="userSpaceOnUse">
<stop stop-color="#53E0FF"/>
<stop offset="0.541667" stop-color="#B0FF4A"/>
<stop offset="1" stop-color="#FFDB5E"/>
</linearGradient>
<clipPath id="clip0_82_627">
<rect width="68" height="80" fill="white"/>
</clipPath>
</defs>
</svg>
