<svg width="28" height="28" viewBox="0 0 28 28" fill="none" xmlns="http://www.w3.org/2000/svg">
<path fill-rule="evenodd" clip-rule="evenodd" d="M14 0.666016C14.7363 0.666016 15.3333 1.26297 15.3333 1.99935V12.666H26C26.7363 12.666 27.3333 13.263 27.3333 13.9993C27.3333 14.7357 26.7363 15.3327 26 15.3327H15.3333V25.9993C15.3333 26.7357 14.7363 27.3327 14 27.3327C13.2636 27.3327 12.6666 26.7357 12.6666 25.9993V15.3327H1.99996C1.26358 15.3327 0.666626 14.7357 0.666626 13.9993C0.666626 13.263 1.26358 12.666 1.99996 12.666H12.6666V1.99935C12.6666 1.26297 13.2636 0.666016 14 0.666016Z" fill="#26334B"/>
</svg>
