<svg width="1920" height="1318" viewBox="0 0 1920 1318" fill="none" xmlns="http://www.w3.org/2000/svg">
<g clip-path="url(#clip0_81_1534)">
<mask id="mask0_81_1534" style="mask-type:luminance" maskUnits="userSpaceOnUse" x="0" y="0" width="1920" height="1318">
<path d="M1920 0.666016H0V1318H1920V0.666016Z" fill="white"/>
</mask>
<g mask="url(#mask0_81_1534)">
<path d="M1920 0.666016H0V1318H1920V0.666016Z" fill="black"/>
<g filter="url(#filter0_f_81_1534)">
<path d="M13.9998 -843.335C-324.367 -843.335 -598.667 -569.035 -598.667 -230.668C-598.667 107.699 -324.367 381.999 13.9998 381.999C352.366 381.999 626.667 107.699 626.667 -230.668C626.667 -569.035 352.366 -843.335 13.9998 -843.335Z" fill="#EA6AFF"/>
</g>
<g filter="url(#filter1_f_81_1534)">
<path d="M1703.33 844.663C1364.96 844.663 1090.66 1118.96 1090.66 1457.33C1090.66 1795.7 1364.96 2070 1703.33 2070C2041.7 2070 2316 1795.7 2316 1457.33C2316 1118.96 2041.7 844.663 1703.33 844.663Z" fill="#3D7FFF"/>
</g>
<g filter="url(#filter2_f_81_1534)">
<path d="M1900.67 -956.668C1562.3 -956.668 1288 -682.368 1288 -344.001C1288 -5.63434 1562.3 268.666 1900.67 268.666C2239.04 268.666 2513.34 -5.63434 2513.34 -344.001C2513.34 -682.368 2239.04 -956.668 1900.67 -956.668Z" fill="#A6FF61"/>
</g>
</g>
</g>
<defs>
<filter id="filter0_f_81_1534" x="-1932" y="-2176.67" width="3892" height="3892" filterUnits="userSpaceOnUse" color-interpolation-filters="sRGB">
<feFlood flood-opacity="0" result="BackgroundImageFix"/>
<feBlend mode="normal" in="SourceGraphic" in2="BackgroundImageFix" result="shape"/>
<feGaussianBlur stdDeviation="666.667" result="effect1_foregroundBlur_81_1534"/>
</filter>
<filter id="filter1_f_81_1534" x="-242.671" y="-488.671" width="3892" height="3892" filterUnits="userSpaceOnUse" color-interpolation-filters="sRGB">
<feFlood flood-opacity="0" result="BackgroundImageFix"/>
<feBlend mode="normal" in="SourceGraphic" in2="BackgroundImageFix" result="shape"/>
<feGaussianBlur stdDeviation="666.667" result="effect1_foregroundBlur_81_1534"/>
</filter>
<filter id="filter2_f_81_1534" x="-45.3309" y="-2290" width="3892" height="3892" filterUnits="userSpaceOnUse" color-interpolation-filters="sRGB">
<feFlood flood-opacity="0" result="BackgroundImageFix"/>
<feBlend mode="normal" in="SourceGraphic" in2="BackgroundImageFix" result="shape"/>
<feGaussianBlur stdDeviation="666.667" result="effect1_foregroundBlur_81_1534"/>
</filter>
<clipPath id="clip0_81_1534">
<rect width="1920" height="1318" fill="white"/>
</clipPath>
</defs>
</svg>
