<svg width="1760" height="1398" viewBox="0 0 1760 1398" fill="none" xmlns="http://www.w3.org/2000/svg">
<g filter="url(#filter0_f_82_1594)">
<path d="M267.613 295.827H312.413V417H345.053V295.827H389.64V266.813H267.613V295.827Z" fill="white" fill-opacity="0.7"/>
<path d="M386.482 417H440.242C467.335 417 481.202 403.347 481.202 385.64C481.202 370.493 471.602 361.96 460.935 358.973C469.682 355.773 477.148 347.88 477.148 335.293C477.148 318.867 464.562 306.707 438.962 306.707H386.482V417ZM416.988 395.027V371.56H436.402C445.362 371.56 450.268 375.613 450.268 383.08C450.268 390.547 445.362 395.027 436.402 395.027H416.988ZM416.988 350.227V328.68H434.268C442.375 328.68 446.642 332.52 446.642 339.347C446.642 345.96 442.162 350.227 434.268 350.227H416.988Z" fill="white" fill-opacity="0.7"/>
<path d="M541.147 304.147C508.293 304.147 485.467 327.187 485.467 361.96C485.467 396.733 508.293 419.56 541.147 419.56C573.787 419.56 596.613 396.733 596.613 361.96C596.613 327.187 573.787 304.147 541.147 304.147ZM516.613 361.96C516.613 343.827 525.787 331.027 541.147 331.027C556.293 331.027 565.467 343.827 565.467 361.96C565.467 379.88 556.293 392.68 541.147 392.68C525.787 392.68 516.613 379.88 516.613 361.96Z" fill="white" fill-opacity="0.7"/>
<path d="M709.428 306.707H679.988L637.322 370.707V306.707H606.815V417H636.255L678.922 352.573V417H709.428V306.707Z" fill="white" fill-opacity="0.7"/>
<path d="M750.867 417.427H759.187C785 417.427 797.8 404.627 800.147 373.48L803.347 333.587H831.507V417H862.653V306.707H775.827L770.707 371.347C769.853 385.213 765.373 390.547 754.707 390.547H750.867V417.427Z" fill="white" fill-opacity="0.7"/>
<path d="M948.533 306.707L924.213 377.533L899.68 306.707H866.187L907.36 414.013L890.72 457.747H923.787L981.813 306.707H948.533Z" fill="white" fill-opacity="0.7"/>
<path d="M1049.18 306.707V350.653C1044.92 352.787 1039.8 354.067 1033.83 354.067C1020.81 354.067 1013.34 347.24 1013.34 333.16V306.707H982.412V336.36C982.412 367.293 1001.61 380.733 1024.44 380.733C1034.47 380.733 1042.78 378.6 1049.18 375.4V417H1080.33V306.707H1049.18Z" fill="white" fill-opacity="0.7"/>
<path d="M1096.61 417H1248.71V306.707H1217.78V390.12H1188.13V306.707H1157.19V390.12H1127.75V306.707H1096.61V417Z" fill="white" fill-opacity="0.7"/>
<path d="M1367.51 306.707H1338.07L1295.41 370.707V306.707H1264.9V417H1294.34L1337.01 352.573V417H1367.51V306.707Z" fill="white" fill-opacity="0.7"/>
<path d="M1377.84 362.387C1377.84 398.227 1400.03 419.56 1433.52 419.56C1464.88 419.56 1479.6 400.787 1482.59 385.427H1452.51C1451.02 389.693 1444.83 395.027 1434.16 395.027C1419.23 395.027 1409.2 384.573 1409.2 371.133V370.707H1483.66V360.04C1483.66 325.907 1463.39 304.147 1431.82 304.147C1399.82 304.147 1377.84 326.333 1377.84 362.387ZM1409.42 348.947C1411.12 336.147 1419.66 328.467 1432.03 328.467C1444.4 328.467 1452.51 336.36 1453.36 348.947H1409.42Z" fill="white" fill-opacity="0.7"/>
<path d="M305.587 577V528.147L341.427 577H377.693L333.96 518.547L376.84 466.707H341.64L305.587 510.44V466.707H274.44V577H305.587Z" fill="white" fill-opacity="0.7"/>
<path d="M443.378 503.827V508.947H419.272C391.112 508.947 374.045 521.96 374.045 544.573C374.045 566.76 391.112 579.56 412.445 579.56C426.738 579.56 438.258 574.013 445.085 565.053V577H473.885V504.893C473.885 478.013 454.898 464.147 426.525 464.147C397.725 464.147 381.298 479.933 378.312 498.92H407.325C409.032 493.16 414.578 488.253 425.245 488.253C435.698 488.253 443.378 493.587 443.378 503.827ZM405.192 543.08C405.192 535.187 412.018 530.493 421.618 530.493H443.378V535.4C443.378 548.2 432.925 555.453 420.978 555.453C411.378 555.453 405.192 550.76 405.192 543.08Z" fill="white" fill-opacity="0.7"/>
<path d="M520.087 577V533.907H559.127V577H590.273V466.707H559.127V507.027H520.087V466.707H488.94V577H520.087Z" fill="white" fill-opacity="0.7"/>
<path d="M709.012 466.707H679.572L636.905 530.707V466.707H606.398V577H635.838L678.505 512.573V577H709.012V466.707Z" fill="white" fill-opacity="0.7"/>
<path d="M756.462 577V528.147L792.302 577H828.568L784.835 518.547L827.715 466.707H792.515L756.462 510.44V466.707H725.315V577H756.462Z" fill="white" fill-opacity="0.7"/>
<path d="M902.117 466.707L877.797 537.534L853.263 466.707H819.77L860.943 574.013L844.303 617.747H877.37L935.397 466.707H902.117Z" fill="white" fill-opacity="0.7"/>
<path d="M924.158 577.427H932.478C958.292 577.427 971.092 564.627 973.438 533.48L976.638 493.587H1004.8V577H1035.95V466.707H949.118L943.998 531.347C943.145 545.214 938.665 550.547 927.998 550.547H924.158V577.427Z" fill="white" fill-opacity="0.7"/>
<path d="M1186.25 466.707H1155.74V577H1186.25V466.707ZM1052.07 577H1101.77C1127.8 577 1144.01 559.933 1144.01 537.32C1144.01 514.707 1128.01 498.067 1101.77 498.067H1082.79V466.707H1052.07V577ZM1082.79 552.04V523.027H1097.93C1107.53 523.027 1113.51 528.787 1113.51 537.32C1113.51 545.64 1107.53 552.04 1097.93 552.04H1082.79Z" fill="white" fill-opacity="0.7"/>
<path d="M274.44 737H328.2C355.293 737 369.16 723.347 369.16 705.64C369.16 690.493 359.56 681.96 348.893 678.973C357.64 675.773 365.107 667.88 365.107 655.293C365.107 638.867 352.52 626.707 326.92 626.707H274.44V737ZM304.947 715.027V691.56H324.36C333.32 691.56 338.227 695.614 338.227 703.08C338.227 710.547 333.32 715.027 324.36 715.027H304.947ZM304.947 670.227V648.68H322.227C330.333 648.68 334.6 652.52 334.6 659.347C334.6 665.96 330.12 670.227 322.227 670.227H304.947Z" fill="white" fill-opacity="0.7"/>
<path d="M545.76 685.16H513.333C511.413 696.253 500.96 710.333 480.693 710.333C458.293 710.333 443.573 690.707 443.573 661.907C443.573 632.253 458.933 613.48 480.48 613.48C499.253 613.48 509.707 625.213 513.12 638.44H545.547C541.92 608.787 519.947 584.253 480.48 584.253C439.307 584.253 410.293 615.4 410.293 661.907C410.293 710.334 440.8 739.56 480.48 739.56C523.787 739.56 544.053 710.333 545.76 685.16Z" fill="white" fill-opacity="0.7"/>
<path d="M606.313 624.147C573.46 624.147 550.633 647.187 550.633 681.96C550.633 716.733 573.46 739.56 606.313 739.56C638.953 739.56 661.78 716.733 661.78 681.96C661.78 647.187 638.953 624.147 606.313 624.147ZM581.78 681.96C581.78 663.827 590.953 651.027 606.313 651.027C621.46 651.027 630.633 663.827 630.633 681.96C630.633 699.88 621.46 712.68 606.313 712.68C590.953 712.68 581.78 699.88 581.78 681.96Z" fill="white" fill-opacity="0.7"/>
<path d="M734.727 626.707V670.654C730.46 672.787 725.34 674.067 719.367 674.067C706.353 674.067 698.887 667.24 698.887 653.16V626.707H667.953V656.36C667.953 687.294 687.153 700.733 709.98 700.733C720.007 700.733 728.327 698.6 734.727 695.4V737H765.873V626.707H734.727Z" fill="white" fill-opacity="0.7"/>
<path d="M884.762 626.707H855.322L812.655 690.707V626.707H782.148V737H811.588L854.255 672.573V737H884.762V626.707Z" fill="white" fill-opacity="0.7"/>
<path d="M1493 597.667C1493 744.943 1373.61 864.334 1226.33 864.334C1079.06 864.334 959.667 744.943 959.667 597.667C959.667 450.391 1079.06 331 1226.33 331C1373.61 331 1493 450.391 1493 597.667Z" fill="#26334B"/>
<path d="M1093 864.334C1093 1011.61 973.609 1131 826.333 1131C679.057 1131 559.667 1011.61 559.667 864.334C559.667 717.058 679.057 597.667 826.333 597.667C973.609 597.667 1093 717.058 1093 864.334Z" fill="#26334B"/>
</g>
<defs>
<filter id="filter0_f_82_1594" x="0.946594" y="0.14679" width="1758.72" height="1397.52" filterUnits="userSpaceOnUse" color-interpolation-filters="sRGB">
<feFlood flood-opacity="0" result="BackgroundImageFix"/>
<feBlend mode="normal" in="SourceGraphic" in2="BackgroundImageFix" result="shape"/>
<feGaussianBlur stdDeviation="133.333" result="effect1_foregroundBlur_82_1594"/>
</filter>
</defs>
</svg>
