<svg width="34" height="34" viewBox="0 0 34 34" fill="none" xmlns="http://www.w3.org/2000/svg"><path fill-rule="evenodd" clip-rule="evenodd" d="M29.546 26.383a5.602 5.602 0 01-3.155 3.156c-1.874.743-5.956.702-8.603.675-.44-.004-.839-.008-1.182-.008-.338 0-.729.003-1.158.007-2.648.026-6.754.065-8.628-.674a5.602 5.602 0 01-3.155-3.156c-.744-1.874-.702-5.955-.675-8.602.004-.44.008-.84.008-1.183 0-.337-.004-.728-.008-1.158-.025-2.647-.065-6.753.675-8.627A5.602 5.602 0 016.82 3.657c1.875-.743 5.956-.702 8.603-.675.44.005.839.009 1.183.009.337 0 .728-.004 1.157-.008 2.648-.026 6.754-.065 8.628.674a5.602 5.602 0 013.155 3.156c.744 1.874.702 5.955.675 8.603-.004.44-.008.839-.008 1.182 0 .344.004.743.008 1.183.027 2.649.069 6.734-.675 8.602zM8.094 16.598c0-4.711 3.8-8.511 8.512-8.511 4.71 0 8.51 3.8 8.51 8.511 0 4.711-3.8 8.511-8.51 8.511a8.498 8.498 0 01-8.512-8.51zm17.37-6.874a1.985 1.985 0 100-3.97 1.985 1.985 0 000 3.97z" fill="#26334B"/><path d="M16.606 22.131a5.543 5.543 0 01-5.534-5.533 5.539 5.539 0 015.534-5.533 5.539 5.539 0 015.533 5.533 5.543 5.543 0 01-5.533 5.534z" fill="#26334B"/><path fill-rule="evenodd" clip-rule="evenodd" d="M33.087 9.754c-.126-2.66-.733-5.015-2.681-6.956C28.465.858 26.109.25 23.45.117 20.71-.04 12.494-.04 9.754.117 7.102.243 4.746.85 2.798 2.79.85 4.73.25 7.087.117 9.746c-.156 2.741-.156 10.956 0 13.697.126 2.659.733 5.014 2.681 6.955 1.948 1.94 4.296 2.548 6.956 2.682 2.74.155 10.955.155 13.696 0 2.66-.126 5.015-.734 6.956-2.682 1.94-1.94 2.548-4.296 2.681-6.955.156-2.741.156-10.949 0-13.69zm-3.54 16.63a5.602 5.602 0 01-3.156 3.155c-1.874.743-5.956.702-8.603.675-.44-.004-.839-.008-1.182-.008-.338 0-.729.003-1.158.007-2.648.026-6.754.065-8.628-.674a5.602 5.602 0 01-3.155-3.156c-.744-1.874-.702-5.955-.675-8.602.004-.44.008-.84.008-1.183 0-.337-.004-.728-.008-1.158-.025-2.647-.065-6.753.675-8.627A5.602 5.602 0 016.82 3.657c1.875-.743 5.956-.702 8.603-.675.44.005.839.009 1.183.009.337 0 .728-.004 1.157-.008 2.648-.026 6.754-.065 8.628.674a5.602 5.602 0 013.155 3.156c.744 1.874.702 5.955.675 8.603-.004.44-.008.839-.008 1.182 0 .344.004.743.008 1.183.027 2.649.069 6.734-.675 8.602z" fill="#26334B"/></svg>