<svg width="34" height="34" viewBox="0 0 34 34" fill="none" xmlns="http://www.w3.org/2000/svg"><path d="M3.074 3.073C.74 5.406.74 9.161.74 16.67v1.327c0 7.509 0 11.264 2.333 13.596 2.332 2.333 6.087 2.333 13.596 2.333h1.327c7.51 0 11.264 0 13.596-2.333 2.333-2.332 2.333-6.087 2.333-13.596V16.67c0-7.51 0-11.264-2.333-13.597C29.261.741 25.506.741 17.997.741H16.67C9.16.74 5.406.74 3.074 3.073zm3.267 7.762h3.789c.124 6.332 2.917 9.015 5.13 9.568v-9.568h3.567v5.461c2.185-.235 4.48-2.724 5.254-5.461h3.568a10.539 10.539 0 01-4.854 6.886 10.917 10.917 0 015.683 6.927h-3.927a6.826 6.826 0 00-5.724-4.936v4.936h-.429c-7.563 0-11.877-5.185-12.057-13.813z" fill="#26334B"/></svg>