<svg width="34" height="34" viewBox="0 0 34 34" fill="none" xmlns="http://www.w3.org/2000/svg"><path d="M2.407 2.407C.074 4.739.074 8.494.074 16.003v1.328c0 7.508 0 11.263 2.333 13.596 2.332 2.332 6.087 2.332 13.596 2.332h1.327c7.51 0 11.264 0 13.597-2.332 2.332-2.333 2.332-6.088 2.332-13.596v-1.328c0-7.509 0-11.264-2.332-13.596C28.593.074 24.838.074 17.33.074h-1.327c-7.509 0-11.264 0-13.596 2.333zm3.267 7.761h3.789c.124 6.333 2.917 9.015 5.13 9.568v-9.568h3.567v5.462c2.185-.235 4.48-2.724 5.254-5.462h3.568a10.536 10.536 0 01-4.854 6.886 10.914 10.914 0 015.683 6.927h-3.927a6.826 6.826 0 00-5.724-4.936v4.936h-.429c-7.563 0-11.877-5.185-12.057-13.813z" fill="#fff"/></svg>