<?xml version="1.0" encoding="utf-8"?><svg viewBox="0 0 224 260" xmlns="http://www.w3.org/2000/svg" xmlns:xlink="http://www.w3.org/1999/xlink"><style>:root>svg{display:none}:root>svg:target{display:block}</style><svg viewBox="0 0 13 12" id="angle" xmlns="http://www.w3.org/2000/svg"><path d="m6.598 11.402-6-10.8h12l-6 10.8Z"/></svg><svg viewBox="0 0 224 260" id="map-big" xmlns="http://www.w3.org/2000/svg"><path d="M80.2 25.919c-1.296-.814-11.163-7.609-12.426-8.47-1.967-1.346-3.962-2.661-5.798-4.176-.777-.638-1.656-1.744-1.65-2.636.018-3.795-3.021-4.93-5.474-5.978-4.51-1.934-9.265-3.19-14.271-3.62-4.045-.345-6.449 1.608-8.488 4.497C27.79 11.631 27.78 18.252 30.16 25c2.229 6.328 5.356 12.213 9.46 17.538 2.228 2.894 3.69 5.983 2.99 10.153-1.466 1.471-3.292 3.138-4.923 4.98-2.821 3.185-5.76 6.308-8.221 9.762-4.08 5.72-9.095 10.178-15.33 13.393-5.672 2.923-9.79 7.342-11.674 13.607-.146.492-.48.98-.461 1.462.204 4.794.451 9.583.714 14.372.043.813.285 1.733.335 2.426.45.807.261.745.95 1.307 2.307 1.881 3.347 2.756 5.464 4.832 2.856 2.791 4.657 6.289 5.623 10.192 1.287 5.203 2.283 10.416 2.574 15.828.155 2.967 1.894 5.827 2.748 8.784 1.924 6.641 3.997 13.252 5.497 19.994.768 3.44.588 7.123.55 10.694-.045 3.654-.753 7.322-.608 10.957.19 4.76-.976 9.203-2.83 13.363-2.866 6.431-2.026 11.907 1.64 17.904 4.92 8.063 12.786 11.552 20.526 15.517 1.258.643 2.535 1.321 3.628 2.202 3.865 3.118 7.973 5.774 12.635 7.552 1.219.463 1.792 1.5 1.728 2.899-.087 1.768.258 3.386 2.579 4.282 2.122-2.801 5.55-4.58 7.167-8.16.37-.814 1.311-1.71 2.147-1.905 3.593-.843 4.19-3.937 4.977-6.675.36-1.247.86-1.963 1.796-2.66 3.837-2.845 6.216-6.47 6.682-11.424.146-1.53 1.418-3.191 2.603-4.346 2.758-2.68 5.73-5.145 8.712-7.576 1.437-1.169 3.166-1.671 5.04-2.134 2.19-.54 4.327-2.012 6.05-3.561 2.433-2.183 5.191-3.644 8.056-5.081a41.357 41.357 0 0 0 11.47-8.453c3.516-3.683 7.765-5.564 13.082-4.234 2.515.629 5.23 1.223 7.745.916 4.822-.589 9.556-1.88 14.339-2.801 4.706-.901 7.78-4.541 11.655-6.83 1.282-.756 2.539-1.569 3.889-2.178 6.536-2.962 13.543-5.169 19.54-8.974 6.701-4.248 13.893-8.024 19.337-14.153 3.428-3.858 3.345-8.141 2.389-12.701-.505-2.411-2.637-3.381-4.405-4.316-7.274-3.859-13.557-8.96-19.108-14.962-2.903-3.147-4.924-6.84-4.671-11.415.121-2.187.272-4.418-.034-6.567-.51-3.571-3.637-6.114-7.226-6.07-2.51.029-5.016.36-7.526.448-4.103.146-4.371-1.934-4.618-4.614-.126-1.383-.398-2.757-.457-4.14-.043-1.131-.165-2.412.277-3.382 1.204-2.655.889-5.398.573-8.053-.184-1.525-1.136-3.113-2.127-4.365-3.54-4.468-6.939-9.11-10.964-13.106-4.711-4.677-9.601-9.212-15.675-12.316-8.615-4.404-17.01-9.222-25.528-13.821-6.283-3.396-12.824-6.192-19.652-8.321-1.927-.6-3.68-1.759-5.608-2.368-3.064-.965-6.06-.93-8.24 1.656-2.628-1.612-5.08-3.117-7.532-4.618"/><path d="M155.944 169.182c.345-2.899.686-5.797 1.031-8.696-.203-.004-.411-.009-.615-.009a815.063 815.063 0 0 1-2.605-2.192c.119-1.11.317-1.992.279-2.86-.071-1.509-.491-3.017-.416-4.507.388-7.438-.468-14.643-3.304-21.602-1.319-3.231-2.667-6.556-3.243-9.962-.818-4.815-1.353-9.805 1.787-14.212 2.978-4.184 4.169-9.09 4.084-13.99-.066-3.652-1.546-7.333-2.699-10.9-2.86-8.866-9.507-14.473-17.284-18.633-4.284-2.292-9.087-3.781-14.122-3.928a4.468 4.468 0 0 1-1.881-.475c-3.565-1.86-7.035-3.923-10.675-5.611-1.806-.835-3.924-.963-5.876-1.5-1.778-.488-3.523-1.1-5.707-1.792-3.011 1.56-6.486 3.287-9.89 5.142-3.356 1.83-5.172 4.848-5.9 8.524-.477 2.415-1.735 4.497-3.834 5.37-5.266 2.177-8.23 6.257-10.372 11.228-.421.973-.936 1.902-1.409 2.851"/><path d="M116.5 171.497c1.5-1.5 15.861-11.013 17.705-11.265 5.966-.82 8.477-3.149 8.949-9.079.279-3.468.558-6.964.45-10.431-.213-6.902-2.426-13.382-4.369-19.947-1.739-5.883-2.222-11.679 1.683-17.381 2.643-3.852 4.463-8.425 4.156-13.43-.194-3.159-.322-6.323-.478-9.487-.009-.237.1-.579-.019-.697-2.633-2.562-3.337-6.47-6.33-8.843-1.862-1.475-3.314-3.467-5.025-5.147-.482-.47-1.215-.711-1.872-.963-7.182-2.77-14.646-4.459-22.22-5.673-.756-.123-1.57.185-2.359.2-1.891.032-3.806.203-5.668-.034-3.158-.403-5.83-.27-8.118 2.59-2.25 2.813-4.987 5.29-7.786 7.576-1.3 1.067-3.215 1.47-4.912 1.945-4.822 1.352-7.73 4.554-8.94 9.283-.662 2.59-1.248 5.138-2.832 7.372-.425.602-.354 1.551-.515 2.343"/><path d="M117.178 151.87c2.496.607 4.827.588 6.623-1.655 1.721-2.149 3.702-4.127 5.125-6.452 1.224-1.997 1.116-4.558.009-6.56-2.893-5.242-5.985-10.375-9.204-15.422-1.324-2.068-1.976-4.037-1.385-6.437.401-1.637.397-3.42 1.035-4.948.619-1.48 1.711-2.813 2.784-4.046 3.494-3.999 7.049-7.941 10.628-11.869 1.655-1.817.709-3.8.43-5.697-.321-2.158-1.016-4.26-1.361-6.413-.771-4.773-3.518-8.326-7.186-11.049-1.537-1.138-3.853-1.598-5.839-1.684-5.427-.223-10.869-.109-16.305-.033-.714.01-1.593.418-2.099.935-3.716 3.795-8.874 5.004-13.242 7.604-2.114 1.257-4.288 2.685-5.862 4.525-2.634 3.079-1.773 8.824 1.352 11.556 1.475 1.29 3.025 2.495 4.481 3.81 2.965 2.684 2.86 6.906-.236 9.472-2.335 1.936-4.723 3.805-7.087 5.702"/><path d="M122.378 151.868h9.262c3.895-3.131 5.356-7.737 4.841-12.799-.549-5.393-1.783-10.739-4.227-15.635-1.191-2.381-1.981-4.687-1.91-7.381.029-1.096-.553-2.31-1.144-3.302-1.702-2.855-1.673-4.26.993-7.12 1.177-1.262 2.548-2.343 3.758-3.577 3.163-3.211 5.158-6.807 4.548-11.622-.695-5.445-1.201-10.84-4.264-15.673-3.267-5.161-8.084-7.633-13.748-9.003-3.612-.878-7.176-1.205-10.887-.522-1.981.365-4.227-.399-6.104.17-3.186.968-6.661 1.998-9.143 4.061-4.231 3.52-8.982 5.607-14.074 7.163-1.059.323-1.385.75-1.957 1.665-2.544 4.056-3.154 8.406-3.347 13.093-.156 3.776-1.683 7.386-4.132 10.441"/><path d="M81.272 29.586c1.025 1.091.898 1.423 2.075 2.675 1.49 1.395-2.468 3.876.775 5.726.752-.754 1.565-1.523 2.322-2.343.794-.864 4.907-.992 6.396-.242 2.898 1.456 5.768 3.002 8.755 4.24 3.797 1.575 7.754 2.77 11.55 4.346 2.529 1.053 4.898 2.5 7.347 3.752 1.725.882 3.474 1.722 5.195 2.618 2.69 1.405 5.333 2.899 8.051 4.241 1.679.83 3.48 1.39 5.187 2.168 2.307 1.053 4.751 1.94 6.826 3.359 4.936 3.377 9.521 7.286 12.5 12.556 2.813 4.972 5.186 10.204 7.564 15.408.563 1.238.407 2.818.525 4.24.184 2.211.501 4.431.425 6.642-.066 1.983-.042 4.288-1.011 5.858-1.702 2.747-1.608 5.641-1.197 8.359.88 5.787 3.239 11.195 7.063 15.602 3.475 4.008 4.69 8.775 5.924 12.736l9.597 10.337"/><path d="M63.992 27.584c2.539-2.804 4.023-2.965 7.106-1.21 4.278 2.443 7.838 5.56 10.216 10.047-.643 1.699-1.22 3.458.988 4.654 2.633-2.676 5.905-1.366 8.86-.83 4.16.754 8.25 1.997 12.291 3.278 2.445.773 4.974 1.67 7.063 3.097 6.406 4.379 13.332 7.604 20.613 10.128 7.994 2.775 14.083 7.756 19.562 14.321 5.328 6.385 7.456 13.652 9.602 21.238.842 2.97-.501 5.194-1.324 7.599-1.668 4.872-3.002 9.777-2.997 14.962 0 .792.255 1.589.459 2.371 1.087 4.194 2.16 8.392 3.333 12.566.283 1.001.931 1.898 1.385 2.856.487 1.02 1.475 2.14 1.328 3.069-.558 3.511.951 6.542 1.754 9.739.043.166.265.38.218.465-1.508 2.789.387 4.54 1.711 6.176h12.486c2.68 0 5.512-.55 7.994.147 2.851.797 5.371 2.756 8.089 4.104 1.636.811 3.38 1.408 5.725 2.371-1.234 1.22-2.042 2.073-2.907 2.861-1.239 1.134-2.534 2.201-3.768 3.335-.823.754-1.584 1.575-2.369 2.367M167.5 177.5c-2.718 1.195-10.327 5.486-13.461 5.088-2.69-.342-5.512.223-8.287.593-4.908.649-8.94 3.42-13.668 4.321-7.597 1.447-15.109 3.235-22.938 3.145-1.645-.019-3.678 1.105-4.87 2.343-1.555 1.613-2.732 3.753-3.569 5.868-1.134 2.856-2.803 4.531-5.975 4.507-.785-.005-1.57.322-2.355.498-1.966 2.097-3.957 4.212-6.183 6.589h-2.842c-.156 2.277-.052 4.397-.51 6.39-.464 2.021-1.485 3.918-2.393 6.185-5.053 4.203-11.317 5.517-18.106 4.977"/><path d="M145.07 179.144c-1.654.317-3.299.773-4.968.91-1.957.162-3.967.237-5.896-.042-.997-.147-1.876-1.144-2.855-1.632-2.127-1.167-4.307-2.244-6.363-3.529-2.151-1.343-3.622-1.201-5.456.018-2.898 1.926-6.212 3.402-8.651 5.793-4.028 3.937-7.394 8.543-11.238 12.684-2.236 2.41-4.066 3.9-6.552 6.063-1.102.963-3.57 1.945-4.728 2.846-1.929 1.504-1.891 4.269-2.364 5.692m-1.418-.237c-1.891.475-3.546.288-5.413 5.133-1.678 4.355-5.304 7.499-9.975 8.998-.402.129-.79.309-1.442.57-2.69-2.505-6.231-.83-9.427-1.537-.26-.057-.477-.304-.714-.46M87.867 85.93c.35 1.987.704 3.97.95 5.37 1.939 1.422 3.366 2.665 4.974 3.614 4.585 2.704 8.5 6.413 13.436 8.614 4.486 1.997 10.741.138 12.395-5 1.14-3.538 3.418-6.712 4.558-10.255 1.555-4.834-.771-11.603-5.352-13.259-.165-.062-.312-.218-.473-.228-4.571-.17-9.171-.697-13.696-.322-2.203.18-4.273 2.04-6.391 3.164-1.433.763-2.794 1.68-4.27 2.343-2.746 1.238-5.124 2.823-6.372 5.716M80.302 189.108c1.026-.631 2.113-1.181 3.059-1.912 2.794-2.168 5.47-4.487 8.302-6.603 3.318-2.481 4.642-6.395 7.015-9.554 2.889-3.842 5.744-7.49 9.635-10.54 4.075-3.198 7.262-7.552 10.732-11.494 1.413-1.604 2.534-3.468 3.81-5.195 1.74-2.353 1.069-5.573-.704-7.362-2.865-2.893-5.72-5.806-8.505-8.78-2.402-2.562-5.834-3.013-8.76-4.488-3.957-1.992-8.037-1.831-12.306-1.058-2.26.408-4.714-.398-7.073-.337-4.874.124-9.493 1.044-13.029 4.92-1.087 1.19-2.482 2.092-3.758 3.107-4.146 3.301-6.945 7.552-8.463 12.585-.666 2.21-.837 4.573-1.229 6.864-.633 3.714-1.536 7.409-1.82 11.152-.336 4.45-2.194 8.397-3.357 12.571-.453 1.622-.676 3.311-.96 4.976a49.832 49.832 0 0 0-.472 3.558c-.463 4.649.823 8.999 2.397 13.268.354.963 1.172 1.75 1.702 2.505 3.465-1.068 6.538-2.021 9.606-2.97M38.7 79.527c.127 1.76-.383 3.117-1.863 4.303-4.595 3.686-9.919 6.076-15.2 8.406-4.51 1.987-6.675 4.933-7.133 9.814-.43 4.611 1.007 8.62 3.243 12.287 2.061 3.377 2.42 7.129 3.418 10.739 1.371 4.948 2.123 10.024 2.435 15.166.118 1.987.387 4.022.992 5.906.37 1.162 1.38 2.21 2.317 3.074 1.187 1.091 2.59 1.944 3.872 2.879h2.01"/><path d="M59.502 111.784c-1.584.455-3.163.911-4.964 1.428-7.437-6.157-15.644-10.816-25.992-9.511-.374.745-.738 1.475-1.173 2.348.657 1.717 1.376 3.61 2.109 5.498 2.434 6.233 7.847 9.634 12.75 13.534 1.57 1.252 3.257 2.485 4.444 4.06 1.72 2.291 1.172 5.085 1.045 7.785-.28 5.844-.298 11.702-.525 17.546-.237 5.996-.69 11.973-2.33 17.794-.124.441.004.944-.02 1.418-.231 4.507-.799 9.028-.595 13.515.146 3.268 1.186 6.523 2.06 9.715.54 1.964 1.56 3.795 2.313 5.707 1.144 2.917 3.285 5.019 5.947 6.333 2.846 1.404 5.952 1.484 8.954.08.194-.09.468-.009.704-.009M62.102 23.317c-1.39-3.667-4.723-5.93-8.747-5.93H49.81c-1.612-2.86-3.702-4.89-7.593-4.146-2.642 1.248-2.41 3.975-2.567 6.518-.364 5.977.662 11.612 3.735 16.864 1.636 2.794 2.747 5.9 4.35 8.718.78 1.371 2.226 2.344 3.233 3.606.964 1.214 1.75 2.58 2.61 3.875-.232.048-.464.095-.695.147 0 2.21-.119 4.43.028 6.632.246 3.695-.666 7.002-2.865 9.962M103.704 77.155c-2.917 2.452-5.848 4.88-8.736 7.362-1.225 1.053-1.717 2.395-1.201 4.023.17.526.227 1.09.307 1.503 1.423 1.096 2.841 2.125 4.184 3.245 3.442 2.88 7.332 4.895 11.824 4.881 2.978-.01 5.105-2.04 6.637-4.64 2.061-3.5 2.184-7.352 1.778-11.147-.251-2.353-2.676-3.278-4.652-3.985a33.847 33.847 0 0 0-7.077-1.665c-2.445-.308-4.832 0-6.884 1.803a17.828 17.828 0 0 1-4.472 2.846c-4.184 1.86-5.508 5.973-2.534 9.246 2.279 2.514 4.803 4.905 7.574 6.835 2.335 1.627 5.186 2.514 7.715 3.686 3.357-.194 6.784-.303 10.032-4.492.941-3.15 2.208-7.813 3.772-12.367.506-1.48.284-2.462-.529-3.586-.894-1.243-1.707-2.547-2.676-4.004-4.496-.242-9.067-.488-13.644-.73"/><path d="M50.991 90.438c-4.718 2.087-8.911 5.156-13.681 7.177-2.497 1.058-5.04 1.162-7.593 1.314-3.337.199-5.994 1.47-8.316 4.705 1.613 4.986 3.366 10.223 4.997 15.503 2.26 7.334 4.704 14.634 6.534 22.077 1.224 4.981 2.926 9.72 4.76 14.468.856 2.225 1.244 4.701 1.433 7.092.34 4.255.615 8.543.454 12.803-.16 4.279-.809 8.548-1.366 12.808-.743 5.664.184 11.096 2.174 16.356 1.06 2.809 1.64 5.892 3.99 8.074"/><path d="M43.428 84.27c-2.997 2.092-4.803 5.512-8.245 7.167-2.189 1.053-4.033 2.813-6.207 3.909-1.225.621-2.865.36-4.203.825-1.721.603-3.4 1.41-4.964 2.353-3.215 1.936-1.924 5.076-1.32 7.533.984 3.98 2.747 7.766 4.128 11.656.695 1.954 1.593 3.908 1.844 5.934.756 6.105 2.08 12.077 3.602 18.016.241.949.62 1.888.68 2.847.148 2.277 1.164 4.008 2.847 5.474.667.579 1.12 1.399 1.674 2.111M78.884 182.942c.79-.157 1.712-.105 2.34-.508 5.55-3.567 11.12-7.196 14.883-12.794 5.352-7.964 12.452-14.449 18.196-22.063 1.565-2.073 2.695-4.478 4.033-6.74-.355-.864-.487-1.689-.95-2.225-3.064-3.553-6.34-6.879-11.091-8.069-3.101-.778-5.791-2.899-9.214-2.657-2.274.162-4.577-.09-6.85.062-3.002.194-5.99.598-8.983.925-.477.052-1.016.028-1.409.251-7.044 4.033-13.464 8.748-15.79 17.078-1.054 3.776-1.447 7.737-2.198 11.603-.492 2.542-1.196 5.042-1.622 7.594-.643 3.857-1.248 7.733-1.636 11.622-.24 2.429-.146 4.905-.018 7.348.18 3.406 2.06 4.502 5.413 3.33.212-.075.468-.009.704-.009"/><path d="M82.923 173.4c-.457.295-10.297 3.732-10.87 3.846-2.434.858-5.448.063-5.578-2.43-.093-1.787-.162-3.599.013-5.377.282-2.846.721-5.682 1.188-8.505.31-1.867.82-3.697 1.178-5.557.546-2.829.83-5.728 1.596-8.491 1.69-6.096 6.352-9.547 11.467-12.497.285-.163.676-.146 1.023-.184 2.173-.24 4.343-.535 6.523-.677 1.652-.111 3.324.073 4.975-.045 2.486-.177 4.44 1.374 6.691 1.944 3.451.871 5.83 3.304 8.055 5.905.336.392.432.996.69 1.628-.972 1.655-1.792 3.415-2.929 4.932-4.171 5.572-9.328 10.317-13.214 16.146-2.733 4.096-6.777 6.752-10.808 9.362Z"/><path d="M86.085 163.121c-.283.185-6.38 2.328-6.735 2.4-1.508.534-3.376.039-3.456-1.516-.058-1.115-.1-2.245.008-3.354.174-1.776.447-3.545.736-5.305.191-1.165.508-2.306.73-3.466.338-1.765.514-3.573.989-5.297 1.046-3.802 3.935-5.954 7.104-7.794.177-.102.42-.091.634-.115 1.347-.149 2.69-.334 4.042-.422 1.023-.07 2.059.045 3.082-.028 1.54-.111 2.75.857 4.146 1.212 2.137.544 3.611 2.061 4.99 3.683.208.245.268.622.427 1.016-.602 1.032-1.11 2.13-1.814 3.076-2.585 3.476-5.78 6.435-8.187 10.071-1.694 2.555-4.2 4.211-6.697 5.839Z"/><path d="M89.606 152.314c-.12.076-2.686.963-2.836.993-.635.221-1.421.016-1.455-.627-.025-.462-.042-.93.003-1.388.074-.735.188-1.467.31-2.195.08-.482.214-.955.307-1.435.143-.73.217-1.478.417-2.191.44-1.574 1.657-2.464 2.991-3.226.075-.042.177-.037.267-.047.567-.062 1.133-.138 1.702-.175.43-.029.867.019 1.297-.012.649-.045 1.159.355 1.746.502.9.225 1.52.853 2.101 1.524.088.101.113.257.18.42-.253.428-.467.882-.764 1.274-1.088 1.438-2.433 2.662-3.447 4.167-.713 1.057-1.768 1.742-2.82 2.416ZM179.109 176.297c-4.335 2.528-8.642 5.104-13.019 7.557-.974.545-2.17.844-3.296.948-3.758.351-7.559.337-11.119 1.898-.529.232-1.248.066-1.877.023-1.758-.113-3.257.285-4.76 1.381-2.865 2.092-6.004 1.845-9.205.569-.818-.327-2.038-.375-2.785.01-2.444 1.261-4.808 2.708-7.11 4.226-3.981 2.628-7.952 5.275-11.805 8.083-1.81 1.319-3.81.807-5.711 1.087-1.29.19-2.671-.237-4.245-.413-3.371 2.538-7.224 4.843-10.301 7.932-2.752 2.756-4.979 6.233-5.513 10.336-.458 3.529-1.933 6.2-5.47 7.329-1.134.361-2.34.489-3.857.797-2.085 5.161-7.026 8.448-10.992 12.746h-1.976l-1.262-4.952c-1.026-.223-2.246-.399-3.414-.759-1.834-.565-3.782-.987-5.408-1.94-2.487-1.461-5.163-2.329-7.834-3.259M33.5 152.578c1.882 1.632 1.962 4.013 2.312 6.176.52 3.207.898 6.471.936 9.715.038 3.24-.378 6.485-.657 9.725-.577 6.788-2.076 13.529-1.168 20.398.912 6.911 2.36 13.671 6.15 19.681.383.608.828 1.31 1.428 1.632 1.679.897 3.447 1.618 5.182 2.41"/><path d="M55.72 99.45c-2.208.711-4.369 1.693-6.629 2.077-4.363.74-8.764 1.153-13.232.579-3.706-.479-7.474-.755-11.21.355-.685 4.137.909 7.382 2.724 10.503 4.827 8.297 9.53 16.622 11.847 26.09 1.206 4.934 2.203 9.853 2.364 14.952.076 2.382.77 4.739.86 7.121.11 2.998-.019 6.015-.212 9.008-.312 4.829-.78 9.644-1.159 14.468-.548 6.983 1.263 13.444 3.64 19.976 1.92 5.275 5.598 7.945 10.302 9.909"/><path d="M67.538 121.742c-5.356 6.613-10.339 13.472-13.19 21.603-.79 2.258-1.063 4.715-1.451 7.101-.988 6.001-1.418 12.149-2.997 17.984-1.333 4.914-1.877 9.738-1.754 14.748.07 2.846.028 5.692.01 8.538-.015 2.704.571 5.138 2.585 7.135 1.508 1.494 2.785 3.216 4.293 4.706 1.636 1.612 3.366 1.736 5.153.222 1.957-1.655 4.297-2.068 6.647-2.575M130.888 152.578c-4.647 3.321-9.299 6.641-13.946 9.967-.412.294-.955.545-1.159.958-1.616 3.249-4.325 5.436-7.11 7.59-3.635 2.817-6.392 6.451-8.968 10.203-1.239 1.803-2.08 3.89-3.366 5.65-1.896 2.59-4.27 4.592-7.484 4.54-2.931 3.33-5.73 6.537-8.576 9.701-.33.365-.926.493-1.4.73M63.52 28.056c-.71-.555-1.612-.977-2.09-1.684-1.337-1.983-3.096-2.875-5.465-3.13-1.54-.167-2.997-1.049-4.5-1.585-1.315-.465-2.648-.887-3.91-1.31-3.016 1.832-2.388 4.678-2.194 7.235.473 6.3 3.593 11.475 7.286 16.37 2.396 3.178 3.011 3.69 9.909 6.845.222 1.898.685 4.047.69 6.2.01 4.858.42 9.71-1.281 14.502-.974 2.742-3.201 4.113-4.823 6.133M30.663 152.578c2.052 3.937 2.87 8.155 2.841 12.571-.023 4.189.289 8.406-.075 12.566-.51 5.873-1.598 11.698-2.25 17.561-.27 2.419-.166 4.905-.01 7.343.16 2.462.714 4.896.88 7.358.198 2.979 2.018 5.241 3.105 7.822.369.878.785 1.741 1.177 2.609"/><path d="M116.5 171.5c-1.735.949-3.237 1.999-5 2.89-4.411 2.23-7.909 5.256-9.98 9.948-1.631 3.7-3.593 7.334-7.058 9.715-1.442.991-3.163 1.551-4.7 2.419-3.682 2.083-6.443 5.071-8.542 8.748a24.952 24.952 0 0 1-3.087 4.245M120.96 152.578c-6.382 6.323-12.911 12.509-19.085 19.037-3.04 3.211-5.564 6.959-8.065 10.635-3.645 5.365-9.418 8.263-13.99 12.537-.084.081-.307.01-.463.01M72.03 39.682c-.544-3.373-1.944-6.01-5.877-6.65-1.679 1.275-3.612 1.228-5.72.526-1.59-.532-3.286-.55-4.738.692 1.04 5.441 4.714 8.648 9.508 10.588 2.921 1.181 6.164-1.375 6.826-4.914M43.428 112.97c0-.237.104-.56-.015-.697-2.132-2.496-4.812-4.137-8.032-4.692-.714-.123-1.763.389-2.274.953-.283.314.09 1.433.426 2.045.6 1.086 1.4 2.064 1.81 2.661 2.492 1.049 4.581 1.931 6.865 2.894.477-.963.969-1.945 1.456-2.927"/><path d="M78.884 47.745c.766-.792 1.962-1.404 1.225-2.86-2.355.086-4.572-.08-6.127-2.381.643-.826 1.234-1.58 1.952-2.49v-2.53c-1.073-1.75-2.103-3.438-3.139-5.127-5.48-4.222-7.375-4.27-9.526.014l-4.378-4.734c-2.297-.996-5.285.844-8.476.688.27.531.577.854.567 1.162-.199 5.598 2.993 9.967 5.626 14.369 1.03 1.722 3.929 2.32 5.98 3.415.374.2.785.323 1.178.48M166.581 152.578c3.253 3.278 6.699 6.409 8.737 10.678 1.234 2.581 1.683 5.204.023 7.832-1.341 1.911-6.841 5.911-7.841 6.411M107.013 89.726c.317-1.252 1.315-2.457.156-3.847l-2.628-.754c-.194.878-.53 1.784-.568 2.704-.07 1.708 1.22 2.116 2.572 2.372M62.101 98.264c.478.285.955.574 1.773 1.063v-3.554h-1.513c-.141.646-.321 1.452-.496 2.254M79.12 194.563v-2.016h-1.772v3.553c.817-.493 1.295-.778 1.773-1.063M71.083 216.144c-.25.507-.505 1.01-.756 1.518-.194-.043-.383-.081-.577-.124-.487-1.147-.785-2.281.752-3.382l.581 1.751M69.192 117c.87-.081 1.688.056 1.362 1.167-.118.393-.898.588-1.716 1.081v-3.795c.808.242 1.409.418 2.01.598M65.647 214.72v3.331c-2.042-1.39-1.843-2.548-.945-3.805M50.046 223.735c.666-.171 1.328-.342 1.995-.512l.624 1.01c-.931.489-1.863.977-2.799 1.466.128.223.255.441.378.664.719.076 1.442.147 2.16.223M47.21 81.426l1.995-.512.624 1.01c-.931.49-1.863.978-2.799 1.466.128.223.256.441.378.664.72.076 1.442.147 2.161.223M66.12 187.922c-.397.825-.544 1.636.709 1.636 1.253 0 1.106-.811.71-1.636M60.683 98.974v-2.927c-.18.005-.36.01-.54.01l-1.956 1.963h3.446M76.993 210.688l-3.31 2.609M55.246 88.305c-.08.555-.156 1.105-.236 1.66-.553-.157-1.101-.318-1.654-.474M147.907 174.164c-.081.555-.156 1.105-.237 1.66-.553-.156-1.101-.317-1.654-.474M67.065 192.426h2.246l-1.536 3.083M146.961 173.926c.421-.166.846-.332 1.267-.503l-.142-.716-2.07.27M54.301 88.067c.42-.166.846-.332 1.267-.503l-.142-.716-2.07.27"/><path d="M67.775 186.97c-.478-1.305-1.192-.698-1.99-.309.434 1.4 1.134 1.291 1.99.546M62.102 215.434c-.383.17-.77.336-1.154.507.147.228.293.451.445.679h1.181M62.81 214.246v3.321M69.902 186.258c-.331.996-.657 1.997-1.054 3.202h2.425c-.667-1.143.78-2.562-1.135-3.202M73.212 186.258c-.332.996-.658 1.997-1.055 3.202h2.425c-.666-1.143.78-2.562-1.134-3.202M79.357 115.578c-.33.996-.657 1.997-1.054 3.202h2.425c-.667-1.143.78-2.561-1.135-3.202M76.047 115.578c-.33.996-.657 1.997-1.054 3.202h2.425c-.666-1.143.78-2.561-1.134-3.202M72.739 115.578c-.331.996-.657 1.997-1.054 3.202h2.425c-.667-1.143.78-2.561-1.135-3.202M36.809 110.836c-.118.915-.085.987.946 1.897 1.394-1.247.988-1.812-.71-1.897"/><path d="M30.9 105.141c-1.745 1.067-2.08 2.258-.502 3.823.435.432.426 1.281.757 1.86.652 1.138 1.163 2.566 2.155 3.263 2.54 1.784 5.267 3.311 8.009 4.777 1.64.878 5.583-1.281 6.368-3.287.128-.328.317-.631.52-1.034-1.745-5.389-6.496-6.642-11.162-7.965-1.948-.555-3.938-.963-5.905-1.437M76.52 186.258c-.321.972-.643 1.945-1.054 3.202h2.425c-.666-1.143.78-2.562-1.135-3.202M71.32 192.426c-.331.996-.657 1.997-1.054 3.202h2.425c-.667-1.143.78-2.562-1.135-3.202M69.43 95.656c-.332.996-.658 1.997-1.055 3.202H70.8c-.666-1.143.78-2.561-1.134-3.202M66.12 95.656c-.331.996-.657 1.997-1.055 3.202h2.426c-.667-1.143.78-2.561-1.135-3.202M74.63 192.426c-.331.996-.658 1.997-1.055 3.202H76c-.666-1.143.78-2.562-1.134-3.202M64.23 86.64c-.332.997-.658 1.998-1.055 3.203H65.6c-.666-1.144.78-2.562-1.135-3.202M60.92 86.64c-.331.997-.658 1.998-1.055 3.203h2.425c-.666-1.144.78-2.562-1.134-3.202M57.61 86.64c-.331.997-.657 1.998-1.054 3.203h2.425c-.667-1.144.78-2.562-1.135-3.202M106.068 81.422c-1.81 1.266-3.716 2.42-5.408 3.833-1.262 1.048-1.276 2.561-.496 3.994 1.843 3.387 4.864 4.791 8.736 4.008.591-.118 1.437-.484 1.603-.944.78-2.163 1.361-4.392 2.033-6.679-1.244-2.656-3.849-3.145-6.231-3.975M58.083 80.95c-.322.972-.643 1.944-1.055 3.201h2.426c-.667-1.143.78-2.561-1.135-3.202M54.774 80.95c-.331.995-.657 1.996-1.054 3.201h2.425c-.667-1.143.78-2.561-1.135-3.202M51.464 80.95c-.33.995-.657 1.996-1.054 3.201h2.425c-.666-1.143.78-2.561-1.134-3.202"/><path d="M104.886 78.578c-2.108.66-3.323 2.277-4.519 4.013-1.12 1.618-2.473 3.07-3.674 4.53 2.501 6.476 7.191 9.118 13.63 8.98.714-.014 1.598-.251 2.099-.711 2.822-2.61 4.874-8.615 3.357-12.31-.643-1.566-1.584-2.552-3.324-2.865-2.463-.446-4.888-1.082-7.332-1.632"/><path d="M103.94 71.938c-2.047 1.105-4.108 2.191-6.141 3.325-3.238 1.802-6.491 3.586-9.687 5.465-4.288 2.518-4.184 3.723-3.356 8.77.406 2.496 2.189 3.924 3.876 5.133 3.442 2.472 7.21 4.478 10.807 6.736.795.498 1.627 1.125 2.104 1.898 1.924 3.102 4.449 5.327 8.647 6.2 1.125-.721 2.643-1.679 4.151-2.666.804-.527 1.508-1.305 2.378-1.622 4.718-1.722 7.606-5.337 9.871-9.545.6-1.11.946-2.51.936-3.771-.019-3.795-.109-7.604-.463-11.38-.355-3.78-3.182-6.418-6.784-7.666-2.582-.897-4.974-.778-7.602-.503-2.79.29-5.664-.213-8.5-.374M67.302 214.484c1.938.883 1.446 1.955.151 3.16-1.168-.845-1.163-1.822-.388-2.922M54.301 223.258c-.33.996-.657 1.997-1.054 3.202h2.425c-.666-1.143.78-2.562-1.134-3.202M57.61 223.258c-.331.996-.657 1.997-1.054 3.202h2.425c-.667-1.143.78-2.562-1.135-3.202M60.92 223.262c-.331.996-.658 1.997-1.055 3.202h2.425c-.666-1.144.78-2.562-1.134-3.202M156.889 172.5c-.331.996-.657 1.997-1.054 3.202h2.425c-.666-1.143.78-2.562-1.134-3.202M153.581 172.5c-.331.996-.658 1.997-1.055 3.202h2.426c-.667-1.143.78-2.562-1.135-3.202M150.271 172.5c-.331.996-.657 1.997-1.054 3.202h2.425c-.667-1.143.78-2.562-1.135-3.202"/><rect x="59.75" y="89.75" width="38.5" height="38.5" rx="19.25"/><path fill-rule="evenodd" clip-rule="evenodd" d="M75.384 111.387c.515 0 1 .106 1.424.319A4.375 4.375 0 0 1 81.126 108c2.38 0 4.318 1.914 4.38 4.283a2.907 2.907 0 0 1 2.53 2.901 2.913 2.913 0 0 1-2.91 2.916h-9.742a3.354 3.354 0 0 1-3.348-3.356c0-1.854 1.5-3.357 3.348-3.357Z"/><path d="M77.96 99.798v-.8M83.06 101.91l.56-.57M69.96 107h.8M72.31 101.34l.56.57M80.793 104.172A4 4 0 0 0 73.964 107"/><rect x="59.75" y="89.75" width="38.5" height="38.5" rx="19.25"/><rect x="84.75" y="139.75" width="38.5" height="38.5" rx="19.25"/><path d="m110.886 150.656-13.462 2.784v.864l6.298-1.302v4.278h-4.598a14.623 14.623 0 0 0-.546 3.968c0 1.376.184 2.661.528 3.904h10.098a14.721 14.721 0 0 0-.018-7.872h-4.599v-4.457l6.299-1.303v-.864Zm-11.362 10.592c0-1.072.123-2.126.365-3.152h1.766v4.752h-2.038a13.903 13.903 0 0 1-.093-1.6Zm8.897-3.152c.243 1.026.365 2.08.365 3.152 0 .539-.032 1.072-.093 1.6h-2.038v-4.752h1.766Zm-2.631 0v4.752h-3.27v-4.752h3.27Z"/><rect x="84.75" y="139.75" width="38.5" height="38.5" rx="19.25"/><rect x="136.75" y="139.75" width="38.5" height="38.5" rx="19.25"/><path d="M157.921 152.923c-.062 1.217-.31 6.681-.31 6.681h1.154v5.952h1.25v-14.544c-1.19-.123-2.031.693-2.094 1.911ZM154.221 154.804h-.745v-3.648h-.865v3.648h-.746v-3.648H151v4.008c0 .909.596 1.679 1.418 1.943v8.449h1.25v-8.449a2.042 2.042 0 0 0 1.419-1.943v-4.008h-.866v3.648Z"/><rect x="136.75" y="139.75" width="38.5" height="38.5" rx="19.25"/><rect x="32.75" y="139.75" width="38.5" height="38.5" rx="19.25"/><mask id="ba" maskUnits="userSpaceOnUse" x="38" y="147" width="24" height="24"><path d="M38 147h24v24H38z"/></mask><g mask="url(#ba)"><path d="M56.5 170c-.433 0-.854-.033-1.262-.1a7.14 7.14 0 0 1-1.188-.3L40 164.475l.5-1.425 6.9 2.525 1.725-4.45-3.575-3.725a1.894 1.894 0 0 1-.537-1.663c.091-.641.42-1.129.987-1.462l3.475-2c.283-.167.571-.263.863-.288.291-.025.579.021.862.138.283.1.53.258.738.475.208.217.362.475.462.775l.325 1.075a4.97 4.97 0 0 0 1.063 1.9c.491.55 1.079.967 1.762 1.25l.525-1.6 1.425.45-1.125 3.45a6.872 6.872 0 0 1-3.275-1.45 6.858 6.858 0 0 1-2.1-2.85l-2.525 1.45 3.025 3.45-2.225 5.75 3.1 1.125 2.1-6.425c.233.083.467.158.7.225.233.067.475.125.725.175l-2.125 6.55.775.275c.3.1.613.179.938.238.325.058.662.087 1.012.087.433 0 .846-.042 1.238-.125.391-.083.77-.208 1.137-.375L60 169.125a7.6 7.6 0 0 1-1.675.65A7.3 7.3 0 0 1 56.5 170Zm-2-16.5c-.55 0-1.02-.196-1.412-.588a1.923 1.923 0 0 1-.588-1.412c0-.55.196-1.021.588-1.413a1.926 1.926 0 0 1 1.412-.587c.55 0 1.021.196 1.413.587.391.392.587.863.587 1.413s-.196 1.021-.587 1.412a1.927 1.927 0 0 1-1.413.588Z"/></g><rect x="32.75" y="139.75" width="38.5" height="38.5" rx="19.25"/><rect x="111.75" y="89.75" width="38.5" height="38.5" rx="19.25"/><path d="m135 107.291 3.475-2.142A1 1 0 0 1 140 106v6.997a1 1 0 0 1-1.525.851L135 111.706"/><rect x="122" y="103" width="13" height="13" rx="3"/><rect x="111.75" y="89.75" width="38.5" height="38.5" rx="19.25"/></svg><svg viewBox="0 0 18 18" id="map-cur" xmlns="http://www.w3.org/2000/svg"><path d="m12 18-6-2.1-4.65 1.8a.902.902 0 0 1-.925-.113A.986.986 0 0 1 0 16.75v-14c0-.217.063-.408.188-.575.125-.167.295-.292.512-.375L6 0l6 2.1L16.65.3a.904.904 0 0 1 .925.112.989.989 0 0 1 .425.838v14a.931.931 0 0 1-.188.575 1.126 1.126 0 0 1-.512.375L12 18Zm-1-2.45V3.85l-4-1.4v11.7l4 1.4Zm2 0 3-1V2.7l-3 1.15v11.7ZM2 15.3l3-1.15V2.45l-3 1V15.3Z"/></svg><svg viewBox="0 0 24 24" id="point" xmlns="http://www.w3.org/2000/svg"><path fill-rule="evenodd" clip-rule="evenodd" d="M12 13a3 3 0 1 1 0-6 3 3 0 1 1 0 6Z"/><path fill-rule="evenodd" clip-rule="evenodd" d="M12 21s-7-5.75-7-11a7 7 0 1 1 14 0c0 5.25-7 11-7 11Z"/></svg><svg viewBox="0 0 23 25" id="zip-cub" xmlns="http://www.w3.org/2000/svg"><path d="M22.477.76.04 5.4v1.44l10.497-2.17v7.13H2.872a24.37 24.37 0 0 0-.91 6.614c0 2.292.308 4.434.88 6.506h16.831c.573-2.07.88-4.253.88-6.506 0-2.254-.317-4.51-.91-6.614H11.98V4.371l10.497-2.17V.76h.001ZM3.54 18.414c0-1.788.205-3.545.608-5.254h2.943v7.92H3.694a23.191 23.191 0 0 1-.154-2.666Zm14.829-5.254c.404 1.71.608 3.466.608 5.254 0 .897-.053 1.786-.155 2.666h-3.397v-7.92h2.944Zm-4.386 0v7.92h-5.45v-7.92h5.45Z"/></svg></svg>