<svg width="23" height="25" viewBox="0 0 23 25" fill="none" xmlns="http://www.w3.org/2000/svg">
<path d="M22.4771 0.760254L0.0395508 5.40025V6.84025L10.5371 4.66905V11.8003H2.87229C2.2801 13.9035 1.96277 16.1219 1.96277 18.4139C1.96277 20.7059 2.27048 22.8483 2.84264 24.9203H19.6732C20.2462 22.8491 20.5531 20.6675 20.5531 18.4139C20.5531 16.1603 20.2357 13.9035 19.6436 11.8003H11.9787V4.37145L22.4763 2.20025V0.760254H22.4771ZM3.53981 18.4139C3.53981 16.6259 3.74495 14.8691 4.14803 13.1603H7.09135V21.0803H3.69446C3.59269 20.2003 3.53981 19.3115 3.53981 18.4139ZM18.3686 13.1603C18.7725 14.8699 18.9768 16.6259 18.9768 18.4139C18.9768 19.3115 18.9239 20.2003 18.8222 21.0803H15.4253V13.1603H18.3686ZM13.9829 13.1603V21.0803H8.53376V13.1603H13.9829Z" fill="#222A2F"/>
</svg>
