<svg width="34" height="34" viewBox="0 0 34 34" fill="none" xmlns="http://www.w3.org/2000/svg">
<path fill-rule="evenodd" clip-rule="evenodd" d="M29.5463 26.3833C28.9685 27.8352 27.85 28.9537 26.3907 29.5389C24.5165 30.2822 20.4354 30.2409 17.7881 30.2141C17.7879 30.2141 17.7876 30.2141 17.7874 30.214C17.3485 30.2096 16.949 30.2056 16.6056 30.2056C16.2685 30.2056 15.8773 30.2093 15.4477 30.2134C12.7999 30.2388 8.69417 30.2782 6.82037 29.5389C5.36852 28.9611 4.25 27.8426 3.66482 26.3833C2.92148 24.5091 2.96283 20.4279 2.98965 17.7807C2.9941 17.3415 2.99815 16.9418 2.99815 16.5981C2.99815 16.2611 2.9944 15.8699 2.99028 15.4403C2.96488 12.7925 2.92549 8.68676 3.66482 6.81296C4.24259 5.36111 5.36111 4.24259 6.82037 3.65741C8.6946 2.91407 12.7758 2.95542 15.423 2.98224C15.8622 2.98669 16.2619 2.99074 16.6056 2.99074C16.9426 2.99074 17.3338 2.98699 17.7634 2.98287C20.4112 2.95747 24.5169 2.91809 26.3907 3.65741C27.8426 4.23518 28.9611 5.3537 29.5463 6.81296C30.2896 8.68719 30.2483 12.7683 30.2215 15.4156C30.2215 15.4158 30.2215 15.4161 30.2215 15.4163C30.217 15.8552 30.213 16.2547 30.213 16.5981C30.213 16.9417 30.217 17.3414 30.2215 17.7807V17.7809C30.2483 20.4295 30.2897 24.5154 29.5463 26.3833ZM8.09444 16.5981C8.09444 11.887 11.8944 8.08704 16.6056 8.08704C21.3167 8.08704 25.1167 11.887 25.1167 16.5981C25.1167 21.3093 21.3167 25.1093 16.6056 25.1093C11.8944 25.1093 8.09444 21.3093 8.09444 16.5981ZM25.4648 9.72407C26.5611 9.72407 27.45 8.84259 27.45 7.73889C27.45 6.64259 26.5611 5.7537 25.4648 5.7537C24.3685 5.7537 23.4796 6.64259 23.4796 7.73889C23.4796 8.83519 24.3611 9.72407 25.4648 9.72407Z" fill="#26334B"/>
<path d="M16.6056 22.1315C13.5611 22.1315 11.0722 19.65 11.0722 16.5981C11.0722 13.5463 13.5537 11.0648 16.6056 11.0648C19.6574 11.0648 22.1389 13.5463 22.1389 16.5981C22.1389 19.65 19.65 22.1315 16.6056 22.1315Z" fill="#26334B"/>
<path fill-rule="evenodd" clip-rule="evenodd" d="M33.087 9.7537C32.9611 7.09444 32.3537 4.73889 30.4056 2.79815C28.4648 0.857407 26.1093 0.25 23.45 0.116667C20.7093 -0.0388889 12.4944 -0.0388889 9.7537 0.116667C7.10185 0.242593 4.7463 0.85 2.79815 2.79074C0.85 4.73148 0.25 7.08704 0.116667 9.7463C-0.0388889 12.487 -0.0388889 20.7019 0.116667 23.4426C0.242593 26.1019 0.85 28.4574 2.79815 30.3981C4.7463 32.3389 7.09444 32.9463 9.7537 33.0796C12.4944 33.2352 20.7093 33.2352 23.45 33.0796C26.1093 32.9537 28.4648 32.3463 30.4056 30.3981C32.3463 28.4574 32.9537 26.1019 33.087 23.4426C33.2426 20.7019 33.2426 12.4944 33.087 9.7537ZM29.5463 26.3833C28.9685 27.8352 27.85 28.9537 26.3907 29.5389C24.5165 30.2822 20.4354 30.2409 17.7881 30.2141L17.7874 30.214C17.3485 30.2096 16.949 30.2056 16.6056 30.2056C16.2685 30.2056 15.8773 30.2093 15.4477 30.2134C12.7999 30.2388 8.69417 30.2782 6.82037 29.5389C5.36852 28.9611 4.25 27.8426 3.66482 26.3833C2.92148 24.5091 2.96283 20.4279 2.98965 17.7807C2.9941 17.3415 2.99815 16.9418 2.99815 16.5981C2.99815 16.2611 2.9944 15.8699 2.99028 15.4403C2.96488 12.7925 2.92549 8.68676 3.66482 6.81296C4.24259 5.36111 5.36111 4.24259 6.82037 3.65741C8.6946 2.91407 12.7758 2.95542 15.423 2.98224C15.8622 2.98669 16.2619 2.99074 16.6056 2.99074C16.9426 2.99074 17.3338 2.98699 17.7634 2.98287C20.4112 2.95747 24.5169 2.91809 26.3907 3.65741C27.8426 4.23518 28.9611 5.3537 29.5463 6.81296C30.2896 8.68719 30.2483 12.7683 30.2215 15.4156L30.2215 15.4163C30.217 15.8552 30.213 16.2547 30.213 16.5981C30.213 16.9417 30.217 17.3414 30.2215 17.7807V17.7809C30.2483 20.4295 30.2897 24.5154 29.5463 26.3833Z" fill="#26334B"/>
</svg>
