<svg width="34" height="34" viewBox="0 0 34 34" fill="none" xmlns="http://www.w3.org/2000/svg">
<path fill-rule="evenodd" clip-rule="evenodd" d="M29.6148 26.4444C29.037 27.8962 27.9185 29.0147 26.4592 29.5999C24.585 30.3433 20.5038 30.3019 17.8566 30.2751C17.8564 30.2751 17.8561 30.2751 17.8559 30.2751C17.417 30.2706 17.0175 30.2666 16.674 30.2666C16.337 30.2666 15.9458 30.2703 15.5162 30.2745C12.8684 30.2999 8.76265 30.3392 6.88885 29.5999C5.437 29.0221 4.31848 27.9036 3.7333 26.4444C2.98996 24.5701 3.03131 20.489 3.05813 17.8418C3.06258 17.4026 3.06663 17.0028 3.06663 16.6592C3.06663 16.3221 3.06288 15.9309 3.05876 15.5014C3.03336 12.8535 2.99398 8.74779 3.7333 6.874C4.31107 5.42215 5.42959 4.30363 6.88885 3.71844C8.76308 2.97511 12.8442 3.01645 15.4915 3.04328C15.9307 3.04773 16.3304 3.05178 16.674 3.05178C17.0111 3.05178 17.4023 3.04802 17.8318 3.0439C20.4797 3.0185 24.5854 2.97912 26.4592 3.71844C27.9111 4.29622 29.0296 5.41474 29.6148 6.874C30.3581 8.74822 30.3168 12.8294 30.2899 15.4766C30.2899 15.4768 30.2899 15.4771 30.2899 15.4773C30.2855 15.9163 30.2814 16.3157 30.2814 16.6592C30.2814 17.0027 30.2855 17.4025 30.2899 17.8418V17.8419C30.3168 20.4905 30.3581 24.5764 29.6148 26.4444ZM8.16293 16.6592C8.16293 11.9481 11.9629 8.14807 16.674 8.14807C21.3851 8.14807 25.1851 11.9481 25.1851 16.6592C25.1851 21.3703 21.3851 25.1703 16.674 25.1703C11.9629 25.1703 8.16293 21.3703 8.16293 16.6592ZM25.5333 9.78511C26.6296 9.78511 27.5185 8.90363 27.5185 7.79992C27.5185 6.70363 26.6296 5.81474 25.5333 5.81474C24.437 5.81474 23.5481 6.70363 23.5481 7.79992C23.5481 8.89622 24.4296 9.78511 25.5333 9.78511Z" fill="white"/>
<path d="M16.674 22.1925C13.6296 22.1925 11.1407 19.711 11.1407 16.6592C11.1407 13.6073 13.6222 11.1259 16.674 11.1259C19.7259 11.1259 22.2074 13.6073 22.2074 16.6592C22.2074 19.711 19.7185 22.1925 16.674 22.1925Z" fill="white"/>
<path fill-rule="evenodd" clip-rule="evenodd" d="M33.1555 9.81474C33.0296 7.15548 32.4222 4.79992 30.474 2.85918C28.5333 0.918442 26.1777 0.311035 23.5185 0.177702C20.7777 0.0221463 12.5629 0.0221463 9.82219 0.177702C7.17033 0.303628 4.81478 0.911035 2.86663 2.85178C0.918482 4.79252 0.318481 7.14807 0.185148 9.80733C0.0295926 12.5481 0.0295926 20.7629 0.185148 23.5036C0.311074 26.1629 0.918482 28.5184 2.86663 30.4592C4.81478 32.3999 7.16293 33.0073 9.82219 33.1407C12.5629 33.2962 20.7777 33.2962 23.5185 33.1407C26.1777 33.0147 28.5333 32.4073 30.474 30.4592C32.4148 28.5184 33.0222 26.1629 33.1555 23.5036C33.3111 20.7629 33.3111 12.5555 33.1555 9.81474ZM29.6148 26.4444C29.037 27.8962 27.9185 29.0147 26.4592 29.5999C24.585 30.3433 20.5038 30.3019 17.8566 30.2751L17.8559 30.2751C17.417 30.2706 17.0175 30.2666 16.674 30.2666C16.337 30.2666 15.9458 30.2703 15.5162 30.2745C12.8684 30.2999 8.76265 30.3392 6.88885 29.5999C5.437 29.0221 4.31848 27.9036 3.7333 26.4444C2.98996 24.5701 3.03131 20.489 3.05813 17.8418C3.06258 17.4026 3.06663 17.0028 3.06663 16.6592C3.06663 16.3221 3.06288 15.9309 3.05876 15.5014C3.03336 12.8535 2.99398 8.74779 3.7333 6.874C4.31107 5.42215 5.42959 4.30363 6.88885 3.71844C8.76308 2.97511 12.8442 3.01645 15.4915 3.04328C15.9307 3.04773 16.3304 3.05178 16.674 3.05178C17.0111 3.05178 17.4023 3.04802 17.8318 3.0439C20.4797 3.0185 24.5854 2.97912 26.4592 3.71844C27.9111 4.29622 29.0296 5.41474 29.6148 6.874C30.3581 8.74822 30.3168 12.8294 30.2899 15.4766L30.2899 15.4773C30.2855 15.9163 30.2814 16.3157 30.2814 16.6592C30.2814 17.0027 30.2855 17.4025 30.2899 17.8418V17.8419C30.3168 20.4905 30.3581 24.5764 29.6148 26.4444Z" fill="white"/>
</svg>
