<svg width="34" height="38" viewBox="0 0 34 38" fill="none" xmlns="http://www.w3.org/2000/svg">
<path d="M33.1756 15.5489C29.9144 15.5567 26.7333 14.5397 24.0815 12.6415V25.88C24.0806 28.3319 23.3312 30.7251 21.9334 32.7396C20.5356 34.7541 18.5562 36.2939 16.2597 37.153C13.9632 38.0121 11.4592 38.1497 9.08243 37.5472C6.70567 36.9448 4.56947 35.6312 2.95947 33.7819C1.34946 31.9326 0.342403 29.6359 0.0729424 27.1988C-0.196518 24.7618 0.284466 22.3005 1.45158 20.1442C2.61869 17.9879 4.41631 16.2392 6.60405 15.1321C8.79179 14.025 11.2654 13.6122 13.6941 13.9489V20.6074C12.5827 20.2578 11.3893 20.2684 10.2843 20.6375C9.17923 21.0066 8.21909 21.7155 7.54096 22.6629C6.86283 23.6102 6.50139 24.7476 6.50825 25.9127C6.51512 27.0777 6.88993 28.2108 7.57917 29.1501C8.26841 30.0894 9.23683 30.7869 10.3461 31.143C11.4554 31.4991 12.6489 31.4956 13.7561 31.1329C14.8633 30.7703 15.8275 30.0671 16.5112 29.1237C17.1949 28.1803 17.563 27.0451 17.563 25.88V0H24.0815C24.077 0.550474 24.1231 1.1002 24.2193 1.64222C24.4458 2.85221 24.9168 4.00327 25.6034 5.02499C26.29 6.04671 27.1778 6.91762 28.2126 7.58444C29.6847 8.55785 31.4107 9.07667 33.1756 9.0763V15.5489Z" fill="#26334B"/>
</svg>
