<svg width="34" height="39" viewBox="0 0 34 39" fill="none" xmlns="http://www.w3.org/2000/svg">
<path d="M33.2592 16.252C29.998 16.2598 26.8169 15.2428 24.1651 13.3446V26.5831C24.1642 29.035 23.4148 31.4283 22.017 33.4427C20.6193 35.4572 18.6398 36.997 16.3433 37.8561C14.0468 38.7152 11.5428 38.8528 9.16605 38.2504C6.78929 37.648 4.65309 36.3343 3.04308 34.485C1.43308 32.6357 0.426021 30.339 0.156561 27.902C-0.1129 25.4649 0.368084 23.0036 1.5352 20.8473C2.70231 18.691 4.49992 16.9424 6.68767 15.8353C8.87541 14.7282 11.349 14.3153 13.7777 14.652V21.3105C12.6663 20.961 11.4729 20.9715 10.3679 21.3406C9.26285 21.7098 8.30271 22.4186 7.62458 23.366C6.94645 24.3134 6.58501 25.4508 6.59187 26.6158C6.59873 27.7808 6.97355 28.9139 7.66279 29.8532C8.35203 30.7925 9.32045 31.4901 10.4298 31.8461C11.5391 32.2022 12.7325 32.1987 13.8397 31.8361C14.9469 31.4734 15.9112 30.7702 16.5948 29.8268C17.2785 28.8835 17.6466 27.7482 17.6466 26.5831V0.703125H24.1651C24.1606 1.2536 24.2067 1.80332 24.3029 2.34535C24.5294 3.55533 25.0004 4.70639 25.687 5.72811C26.3736 6.74984 27.2615 7.62075 28.2962 8.28757C29.7684 9.26097 31.4943 9.77979 33.2592 9.77942V16.252Z" fill="white"/>
</svg>
