<svg width="34" height="34" viewBox="0 0 34 34" fill="none" xmlns="http://www.w3.org/2000/svg">
<path d="M3.07361 3.07337C0.740967 5.406 0.740967 9.1608 0.740967 16.6696V17.997C0.740967 25.5058 0.740967 29.2607 3.07361 31.5932C5.40625 33.9259 9.16104 33.9259 16.6699 33.9259H17.9973C25.5061 33.9259 29.2609 33.9259 31.5935 31.5932C33.9262 29.2607 33.9262 25.5058 33.9262 17.997V16.6696C33.9262 9.1608 33.9262 5.406 31.5935 3.07337C29.2609 0.740723 25.5061 0.740723 17.9973 0.740723H16.6699C9.16104 0.740723 5.40625 0.740723 3.07361 3.07337ZM6.34097 10.8346H10.1296C10.2541 17.1674 13.0471 19.8498 15.2595 20.4029V10.8346H18.8269V16.2963C21.0116 16.0612 23.3069 13.5724 24.0812 10.8346H27.6486C27.3567 12.2544 26.775 13.5987 25.9399 14.7836C25.1049 15.9684 24.0344 16.9682 22.7953 17.7205C24.1787 18.4073 25.4007 19.38 26.3804 20.5741C27.36 21.7684 28.075 23.1569 28.4782 24.6479H24.5513C24.1895 23.3527 23.4531 22.1933 22.4347 21.3151C21.4163 20.4369 20.1612 19.8791 18.8269 19.7116V24.6479H18.3982C10.8348 24.6479 6.52072 19.4627 6.34097 10.8346Z" fill="#26334B"/>
</svg>
