<svg width="34" height="34" viewBox="0 0 34 34" fill="none" xmlns="http://www.w3.org/2000/svg">
<path d="M2.40662 2.40686C0.0739746 4.7395 0.0739746 8.49429 0.0739746 16.0031V17.3305C0.0739746 24.8393 0.0739746 28.5941 2.40662 30.9267C4.73926 33.2594 8.49405 33.2594 16.0029 33.2594H17.3303C24.8391 33.2594 28.5939 33.2594 30.9265 30.9267C33.2592 28.5941 33.2592 24.8393 33.2592 17.3305V16.0031C33.2592 8.49429 33.2592 4.7395 30.9265 2.40686C28.5939 0.0742188 24.8391 0.0742188 17.3303 0.0742188H16.0029C8.49405 0.0742188 4.73926 0.0742188 2.40662 2.40686ZM5.67398 10.1681H9.46264C9.58709 16.5009 12.3801 19.1833 14.5925 19.7364V10.1681H18.1599V15.6298C20.3446 15.3947 22.6399 12.9058 23.4142 10.1681H26.9816C26.6898 11.5879 26.1081 12.9322 25.2729 14.1171C24.4379 15.3019 23.3674 16.3017 22.1283 17.054C23.5118 17.7408 24.7338 18.7135 25.7134 19.9076C26.693 21.1019 27.4081 22.4904 27.8112 23.9814H23.8843C23.5225 22.6862 22.7861 21.5268 21.7677 20.6486C20.7493 19.7704 19.4942 19.2126 18.1599 19.0451V23.9814H17.7312C10.1678 23.9814 5.85373 18.7962 5.67398 10.1681Z" fill="white"/>
</svg>
