<svg width="41" height="29" viewBox="0 0 41 29" fill="none" xmlns="http://www.w3.org/2000/svg">
<path d="M40.0484 4.89444C39.5831 3.14259 38.2123 1.76288 36.4718 1.29466C33.317 0.443848 20.6665 0.443848 20.6665 0.443848C20.6665 0.443848 8.01615 0.443848 4.86126 1.29466C3.12074 1.76296 1.74992 3.14259 1.28466 4.89444C0.439331 8.06977 0.439331 14.6948 0.439331 14.6948C0.439331 14.6948 0.439331 21.3198 1.28466 24.4952C1.74992 26.247 3.12074 27.5693 4.86126 28.0375C8.01615 28.8883 20.6665 28.8883 20.6665 28.8883C20.6665 28.8883 33.3169 28.8883 36.4718 28.0375C38.2123 27.5693 39.5831 26.247 40.0484 24.4952C40.8937 21.3198 40.8937 14.6948 40.8937 14.6948C40.8937 14.6948 40.8937 8.06977 40.0484 4.89444ZM16.5291 20.7098V8.67977L27.1024 14.695L16.5291 20.7098Z" fill="white"/>
</svg>
