<svg width="41" height="29" viewBox="0 0 41 29" fill="none" xmlns="http://www.w3.org/2000/svg">
<path d="M39.609 4.45059C39.1438 2.69874 37.773 1.31904 36.0324 0.850815C32.8776 0 20.2272 0 20.2272 0C20.2272 0 7.57682 0 4.42193 0.850815C2.68141 1.31911 1.31059 2.69874 0.845333 4.45059C0 7.62593 0 14.251 0 14.251C0 14.251 0 20.876 0.845333 24.0513C1.31059 25.8032 2.68141 27.1254 4.42193 27.5936C7.57682 28.4444 20.2272 28.4444 20.2272 28.4444C20.2272 28.4444 32.8776 28.4444 36.0324 27.5936C37.773 27.1254 39.1438 25.8032 39.609 24.0513C40.4544 20.876 40.4544 14.251 40.4544 14.251C40.4544 14.251 40.4544 7.62593 39.609 4.45059ZM16.0898 20.266V8.23592L26.663 14.2511L16.0898 20.266Z" fill="#26334B"/>
</svg>
