<svg width="1920" height="14122" viewBox="0 0 1920 14122" fill="none" xmlns="http://www.w3.org/2000/svg"><g clip-path="url(#clip0_18_1666)"><mask id="mask0_18_1666" style="mask-type:luminance" maskUnits="userSpaceOnUse" x="0" y="0" width="1920" height="14122"><path d="M1920 0H0v14122h1920V0z" fill="#fff"/></mask><g mask="url(#mask0_18_1666)"><mask id="mask1_18_1666" style="mask-type:luminance" maskUnits="userSpaceOnUse" x="0" y="0" width="1920" height="14122"><path d="M1920 0H0v14121.3h1920V0z" fill="#fff"/></mask><g mask="url(#mask1_18_1666)"><mask id="mask2_18_1666" style="mask-type:luminance" maskUnits="userSpaceOnUse" x="0" y="0" width="1920" height="14122"><path d="M1920 0H0v14121.3h1920V0z" fill="#fff"/></mask><g mask="url(#mask2_18_1666)"><g filter="url(#filter0_f_18_1666)"><path d="M-154.664 1558.67c331.371 0 600-268.63 600-600.003 0-331.371-268.629-600-600-600s-600 268.629-600 600c0 331.373 268.629 600.003 600 600.003z" fill="#203CC8"/></g><g filter="url(#filter1_f_18_1666)"><path d="M-154.664 1558.67c331.371 0 600-268.63 600-600.003 0-331.371-268.629-600-600-600s-600 268.629-600 600c0 331.373 268.629 600.003 600 600.003z" fill="#203CC8"/></g><g filter="url(#filter2_f_18_1666)"><path d="M1391.33 296C1729.7 296 2004 21.7 2004-316.667s-274.3-612.667-612.67-612.667c-338.37 0-612.666 274.3-612.666 612.667S1052.96 296 1391.33 296z" fill="#6AC820"/></g><g filter="url(#filter3_f_18_1666)"><path d="M1235.33 3744c338.37 0 612.67-274.3 612.67-612.67 0-338.37-274.3-612.67-612.67-612.67-338.366 0-612.666 274.3-612.666 612.67 0 338.37 274.3 612.67 612.666 612.67z" fill="#B020C8"/></g><g filter="url(#filter4_f_18_1666)"><path d="M63.331 5741.34c338.367 0 612.667-274.3 612.667-612.67 0-338.37-274.3-612.67-612.667-612.67s-612.667 274.3-612.667 612.67c0 338.37 274.3 612.67 612.667 612.67z" fill="#008A71"/></g><g filter="url(#filter5_f_18_1666)"><path d="M1934 6582.67c338.37 0 612.67-274.3 612.67-612.67 0-338.37-274.3-612.67-612.67-612.67-338.37 0-612.67 274.3-612.67 612.67 0 338.37 274.3 612.67 612.67 612.67z" fill="#9AC84F"/></g><g filter="url(#filter6_f_18_1666)"><path d="M122.003 7880c338.367 0 612.667-274.3 612.667-612.67 0-338.37-274.3-612.67-612.667-612.67s-612.667 274.3-612.667 612.67c0 338.37 274.3 612.67 612.667 612.67z" fill="#2063C8"/></g><g filter="url(#filter7_f_18_1666)"><path d="M-307.329 12410.6c-338.367 0-612.667-274.3-612.667-612.6 0-338.4 274.3-612.7 612.667-612.7 338.366 0 612.667 274.3 612.667 612.7 0 338.3-274.3 612.6-612.667 612.6z" fill="#C8A320"/></g><g filter="url(#filter8_f_18_1666)"><path d="M2096.66 12909.3c-338.37 0-612.67-274.3-612.67-612.6 0-338.4 274.3-612.7 612.67-612.7 338.37 0 612.67 274.3 612.67 612.7 0 338.3-274.3 612.6-612.67 612.6z" fill="#2045C8"/></g><path d="M11.895 4783.17v-4.09" stroke="#000" stroke-width="3" stroke-linecap="round"/></g></g></g><mask id="mask3_18_1666" style="mask-type:luminance" maskUnits="userSpaceOnUse" x="0" y="0" width="1920" height="14122"><path d="M1920 0H0v14122h1920V0z" fill="#fff"/></mask><g mask="url(#mask3_18_1666)"><mask id="mask4_18_1666" style="mask-type:luminance" maskUnits="userSpaceOnUse" x="0" y="0" width="1920" height="14122"><path d="M1920 0H0v14121.3h1920V0z" fill="#fff"/></mask><g mask="url(#mask4_18_1666)"><mask id="mask5_18_1666" style="mask-type:luminance" maskUnits="userSpaceOnUse" x="0" y="0" width="1920" height="14122"><path d="M1920 0H0v14121.3h1920V0z" fill="#fff"/></mask><g mask="url(#mask5_18_1666)"><g filter="url(#filter9_f_18_1666)"><path d="M-154.664 1558.67c331.371 0 600-268.63 600-600.003 0-331.371-268.629-600-600-600s-600 268.629-600 600c0 331.373 268.629 600.003 600 600.003z" fill="#203CC8"/></g><g filter="url(#filter10_f_18_1666)"><path d="M-154.664 1558.67c331.371 0 600-268.63 600-600.003 0-331.371-268.629-600-600-600s-600 268.629-600 600c0 331.373 268.629 600.003 600 600.003z" fill="#203CC8"/></g><g filter="url(#filter11_f_18_1666)"><path d="M1391.33 296C1729.7 296 2004 21.7 2004-316.667s-274.3-612.667-612.67-612.667c-338.37 0-612.666 274.3-612.666 612.667S1052.96 296 1391.33 296z" fill="#6AC820"/></g><g filter="url(#filter12_f_18_1666)"><path d="M1235.33 3744c338.37 0 612.67-274.3 612.67-612.67 0-338.37-274.3-612.67-612.67-612.67-338.366 0-612.666 274.3-612.666 612.67 0 338.37 274.3 612.67 612.666 612.67z" fill="#B020C8"/></g><g filter="url(#filter13_f_18_1666)"><path d="M63.331 5741.34c338.367 0 612.667-274.3 612.667-612.67 0-338.37-274.3-612.67-612.667-612.67s-612.667 274.3-612.667 612.67c0 338.37 274.3 612.67 612.667 612.67z" fill="#008A71"/></g><g filter="url(#filter14_f_18_1666)"><path d="M1934 6582.67c338.37 0 612.67-274.3 612.67-612.67 0-338.37-274.3-612.67-612.67-612.67-338.37 0-612.67 274.3-612.67 612.67 0 338.37 274.3 612.67 612.67 612.67z" fill="#9AC84F"/></g><g filter="url(#filter15_f_18_1666)"><path d="M122.003 7880c338.367 0 612.667-274.3 612.667-612.67 0-338.37-274.3-612.67-612.667-612.67s-612.667 274.3-612.667 612.67c0 338.37 274.3 612.67 612.667 612.67z" fill="#2063C8"/></g><g filter="url(#filter16_f_18_1666)"><path d="M-307.329 12410.6c-338.367 0-612.667-274.3-612.667-612.6 0-338.4 274.3-612.7 612.667-612.7 338.366 0 612.667 274.3 612.667 612.7 0 338.3-274.3 612.6-612.667 612.6z" fill="#C8A320"/></g><g filter="url(#filter17_f_18_1666)"><path d="M2096.66 12909.3c-338.37 0-612.67-274.3-612.67-612.6 0-338.4 274.3-612.7 612.67-612.7 338.37 0 612.67 274.3 612.67 612.7 0 338.3-274.3 612.6-612.67 612.6z" fill="#2045C8"/></g><path d="M11.895 4783.17v-4.09" stroke="#000" stroke-width="3" stroke-linecap="round"/></g></g></g></g><defs><filter id="filter0_f_18_1666" x="-2088" y="-974.667" width="3866.67" height="3866.67" filterUnits="userSpaceOnUse" color-interpolation-filters="sRGB"><feFlood flood-opacity="0" result="BackgroundImageFix"/><feBlend in="SourceGraphic" in2="BackgroundImageFix" result="shape"/><feGaussianBlur stdDeviation="666.667" result="effect1_foregroundBlur_18_1666"/></filter><filter id="filter1_f_18_1666" x="-2088" y="-974.667" width="3866.67" height="3866.67" filterUnits="userSpaceOnUse" color-interpolation-filters="sRGB"><feFlood flood-opacity="0" result="BackgroundImageFix"/><feBlend in="SourceGraphic" in2="BackgroundImageFix" result="shape"/><feGaussianBlur stdDeviation="666.667" result="effect1_foregroundBlur_18_1666"/></filter><filter id="filter2_f_18_1666" x="-554.67" y="-2262.67" width="3892" height="3892" filterUnits="userSpaceOnUse" color-interpolation-filters="sRGB"><feFlood flood-opacity="0" result="BackgroundImageFix"/><feBlend in="SourceGraphic" in2="BackgroundImageFix" result="shape"/><feGaussianBlur stdDeviation="666.667" result="effect1_foregroundBlur_18_1666"/></filter><filter id="filter3_f_18_1666" x="-710.67" y="1185.33" width="3892" height="3892.01" filterUnits="userSpaceOnUse" color-interpolation-filters="sRGB"><feFlood flood-opacity="0" result="BackgroundImageFix"/><feBlend in="SourceGraphic" in2="BackgroundImageFix" result="shape"/><feGaussianBlur stdDeviation="666.667" result="effect1_foregroundBlur_18_1666"/></filter><filter id="filter4_f_18_1666" x="-1882.67" y="3182.67" width="3892" height="3892.01" filterUnits="userSpaceOnUse" color-interpolation-filters="sRGB"><feFlood flood-opacity="0" result="BackgroundImageFix"/><feBlend in="SourceGraphic" in2="BackgroundImageFix" result="shape"/><feGaussianBlur stdDeviation="666.667" result="effect1_foregroundBlur_18_1666"/></filter><filter id="filter5_f_18_1666" x="-12.006" y="4024" width="3892.01" height="3892.01" filterUnits="userSpaceOnUse" color-interpolation-filters="sRGB"><feFlood flood-opacity="0" result="BackgroundImageFix"/><feBlend in="SourceGraphic" in2="BackgroundImageFix" result="shape"/><feGaussianBlur stdDeviation="666.667" result="effect1_foregroundBlur_18_1666"/></filter><filter id="filter6_f_18_1666" x="-1824" y="5321.33" width="3892" height="3892.01" filterUnits="userSpaceOnUse" color-interpolation-filters="sRGB"><feFlood flood-opacity="0" result="BackgroundImageFix"/><feBlend in="SourceGraphic" in2="BackgroundImageFix" result="shape"/><feGaussianBlur stdDeviation="666.667" result="effect1_foregroundBlur_18_1666"/></filter><filter id="filter7_f_18_1666" x="-2253.33" y="9851.97" width="3892" height="3891.97" filterUnits="userSpaceOnUse" color-interpolation-filters="sRGB"><feFlood flood-opacity="0" result="BackgroundImageFix"/><feBlend in="SourceGraphic" in2="BackgroundImageFix" result="shape"/><feGaussianBlur stdDeviation="666.667" result="effect1_foregroundBlur_18_1666"/></filter><filter id="filter8_f_18_1666" x="150.654" y="10350.7" width="3892.01" height="3891.97" filterUnits="userSpaceOnUse" color-interpolation-filters="sRGB"><feFlood flood-opacity="0" result="BackgroundImageFix"/><feBlend in="SourceGraphic" in2="BackgroundImageFix" result="shape"/><feGaussianBlur stdDeviation="666.667" result="effect1_foregroundBlur_18_1666"/></filter><filter id="filter9_f_18_1666" x="-2088" y="-974.667" width="3866.67" height="3866.67" filterUnits="userSpaceOnUse" color-interpolation-filters="sRGB"><feFlood flood-opacity="0" result="BackgroundImageFix"/><feBlend in="SourceGraphic" in2="BackgroundImageFix" result="shape"/><feGaussianBlur stdDeviation="666.667" result="effect1_foregroundBlur_18_1666"/></filter><filter id="filter10_f_18_1666" x="-2088" y="-974.667" width="3866.67" height="3866.67" filterUnits="userSpaceOnUse" color-interpolation-filters="sRGB"><feFlood flood-opacity="0" result="BackgroundImageFix"/><feBlend in="SourceGraphic" in2="BackgroundImageFix" result="shape"/><feGaussianBlur stdDeviation="666.667" result="effect1_foregroundBlur_18_1666"/></filter><filter id="filter11_f_18_1666" x="-554.67" y="-2262.67" width="3892" height="3892" filterUnits="userSpaceOnUse" color-interpolation-filters="sRGB"><feFlood flood-opacity="0" result="BackgroundImageFix"/><feBlend in="SourceGraphic" in2="BackgroundImageFix" result="shape"/><feGaussianBlur stdDeviation="666.667" result="effect1_foregroundBlur_18_1666"/></filter><filter id="filter12_f_18_1666" x="-710.67" y="1185.33" width="3892" height="3892.01" filterUnits="userSpaceOnUse" color-interpolation-filters="sRGB"><feFlood flood-opacity="0" result="BackgroundImageFix"/><feBlend in="SourceGraphic" in2="BackgroundImageFix" result="shape"/><feGaussianBlur stdDeviation="666.667" result="effect1_foregroundBlur_18_1666"/></filter><filter id="filter13_f_18_1666" x="-1882.67" y="3182.67" width="3892" height="3892.01" filterUnits="userSpaceOnUse" color-interpolation-filters="sRGB"><feFlood flood-opacity="0" result="BackgroundImageFix"/><feBlend in="SourceGraphic" in2="BackgroundImageFix" result="shape"/><feGaussianBlur stdDeviation="666.667" result="effect1_foregroundBlur_18_1666"/></filter><filter id="filter14_f_18_1666" x="-12.006" y="4024" width="3892.01" height="3892.01" filterUnits="userSpaceOnUse" color-interpolation-filters="sRGB"><feFlood flood-opacity="0" result="BackgroundImageFix"/><feBlend in="SourceGraphic" in2="BackgroundImageFix" result="shape"/><feGaussianBlur stdDeviation="666.667" result="effect1_foregroundBlur_18_1666"/></filter><filter id="filter15_f_18_1666" x="-1824" y="5321.33" width="3892" height="3892.01" filterUnits="userSpaceOnUse" color-interpolation-filters="sRGB"><feFlood flood-opacity="0" result="BackgroundImageFix"/><feBlend in="SourceGraphic" in2="BackgroundImageFix" result="shape"/><feGaussianBlur stdDeviation="666.667" result="effect1_foregroundBlur_18_1666"/></filter><filter id="filter16_f_18_1666" x="-2253.33" y="9851.97" width="3892" height="3891.97" filterUnits="userSpaceOnUse" color-interpolation-filters="sRGB"><feFlood flood-opacity="0" result="BackgroundImageFix"/><feBlend in="SourceGraphic" in2="BackgroundImageFix" result="shape"/><feGaussianBlur stdDeviation="666.667" result="effect1_foregroundBlur_18_1666"/></filter><filter id="filter17_f_18_1666" x="150.654" y="10350.7" width="3892.01" height="3891.97" filterUnits="userSpaceOnUse" color-interpolation-filters="sRGB"><feFlood flood-opacity="0" result="BackgroundImageFix"/><feBlend in="SourceGraphic" in2="BackgroundImageFix" result="shape"/><feGaussianBlur stdDeviation="666.667" result="effect1_foregroundBlur_18_1666"/></filter><clipPath id="clip0_18_1666"><path fill="#fff" d="M0 0h1920v14122H0z"/></clipPath></defs></svg>