<svg width="68" height="80" viewBox="0 0 68 80" fill="none" xmlns="http://www.w3.org/2000/svg"><g clip-path="url(#clip0_82_627)"><path fill-rule="evenodd" clip-rule="evenodd" d="M31.802 79.212l.105.082a3.454 3.454 0 004.186 0l.38-.296c.236-.187.578-.459 1.01-.81a129.91 129.91 0 003.561-3.005c2.933-2.564 6.853-6.203 10.785-10.492 3.922-4.278 7.92-9.274 10.952-14.555C65.796 44.886 68 39.109 68 33.333 68 14.923 52.778 0 34 0S0 14.924 0 33.333c0 5.776 2.204 11.553 5.219 16.803 3.033 5.281 7.03 10.277 10.952 14.555 3.932 4.29 7.852 7.928 10.785 10.492a129.78 129.78 0 003.56 3.005 86.562 86.562 0 001.286 1.024z" fill="#0D4E5C"/><circle cx="34" cy="34" r="22" fill="url(#paint0_linear_82_627)"/><path d="M31.304 27.688c1.648 0 3.056.616 4.224 1.848C36.696 30.752 37.28 32.24 37.28 34c0 1.776-.584 3.272-1.752 4.488-1.168 1.216-2.576 1.824-4.224 1.824-1.824 0-3.224-.672-4.2-2.016V44.8h-2.592V28h2.592v1.728c.976-1.36 2.376-2.04 4.2-2.04zm-3.12 9.072c.72.72 1.624 1.08 2.712 1.08s1.992-.36 2.712-1.08c.72-.736 1.08-1.656 1.08-2.76 0-1.104-.36-2.016-1.08-2.736-.72-.736-1.624-1.104-2.712-1.104s-1.992.368-2.712 1.104c-.72.72-1.08 1.632-1.08 2.736 0 1.104.36 2.024 1.08 2.76zM39.629 40V22.48h2.592V40H39.63z" fill="#00252D"/></g><defs><linearGradient id="paint0_linear_82_627" x1="12" y1="12" x2="59.303" y2="15.896" gradientUnits="userSpaceOnUse"><stop stop-color="#53E0FF"/><stop offset=".542" stop-color="#B0FF4A"/><stop offset="1" stop-color="#FFDB5E"/></linearGradient><clipPath id="clip0_82_627"><path fill="#fff" d="M0 0h68v80H0z"/></clipPath></defs></svg>