<svg width="1920" height="1318" viewBox="0 0 1920 1318" fill="none" xmlns="http://www.w3.org/2000/svg"><g clip-path="url(#clip0_81_1534)"><mask id="mask0_81_1534" style="mask-type:luminance" maskUnits="userSpaceOnUse" x="0" y="0" width="1920" height="1318"><path d="M1920 .666H0V1318h1920V.666z" fill="#fff"/></mask><g mask="url(#mask0_81_1534)"><path d="M1920 .666H0V1318h1920V.666z" fill="#000"/><g filter="url(#filter0_f_81_1534)"><path d="M14-843.335c-338.367 0-612.667 274.3-612.667 612.667S-324.367 381.999 14 381.999c338.366 0 612.667-274.3 612.667-612.667S352.366-843.335 14-843.335z" fill="#EA6AFF"/></g><g filter="url(#filter1_f_81_1534)"><path d="M1703.33 844.663c-338.37 0-612.67 274.297-612.67 612.667S1364.96 2070 1703.33 2070c338.37 0 612.67-274.3 612.67-612.67 0-338.37-274.3-612.667-612.67-612.667z" fill="#3D7FFF"/></g><g filter="url(#filter2_f_81_1534)"><path d="M1900.67-956.668c-338.37 0-612.67 274.3-612.67 612.667s274.3 612.667 612.67 612.667c338.37 0 612.67-274.3 612.67-612.667s-274.3-612.667-612.67-612.667z" fill="#A6FF61"/></g></g></g><defs><filter id="filter0_f_81_1534" x="-1932" y="-2176.67" width="3892" height="3892" filterUnits="userSpaceOnUse" color-interpolation-filters="sRGB"><feFlood flood-opacity="0" result="BackgroundImageFix"/><feBlend in="SourceGraphic" in2="BackgroundImageFix" result="shape"/><feGaussianBlur stdDeviation="666.667" result="effect1_foregroundBlur_81_1534"/></filter><filter id="filter1_f_81_1534" x="-242.671" y="-488.671" width="3892" height="3892" filterUnits="userSpaceOnUse" color-interpolation-filters="sRGB"><feFlood flood-opacity="0" result="BackgroundImageFix"/><feBlend in="SourceGraphic" in2="BackgroundImageFix" result="shape"/><feGaussianBlur stdDeviation="666.667" result="effect1_foregroundBlur_81_1534"/></filter><filter id="filter2_f_81_1534" x="-45.331" y="-2290" width="3892" height="3892" filterUnits="userSpaceOnUse" color-interpolation-filters="sRGB"><feFlood flood-opacity="0" result="BackgroundImageFix"/><feBlend in="SourceGraphic" in2="BackgroundImageFix" result="shape"/><feGaussianBlur stdDeviation="666.667" result="effect1_foregroundBlur_81_1534"/></filter><clipPath id="clip0_81_1534"><path fill="#fff" d="M0 0h1920v1318H0z"/></clipPath></defs></svg>