<svg width="1760" height="1398" viewBox="0 0 1760 1398" fill="none" xmlns="http://www.w3.org/2000/svg"><g filter="url(#filter0_f_82_1594)"><path d="M267.613 295.827h44.8V417h32.64V295.827h44.587v-29.014H267.613v29.014zM386.482 417h53.76c27.093 0 40.96-13.653 40.96-31.36 0-15.147-9.6-23.68-20.267-26.667 8.747-3.2 16.213-11.093 16.213-23.68 0-16.426-12.586-28.586-38.186-28.586h-52.48V417zm30.506-21.973V371.56h19.414c8.96 0 13.866 4.053 13.866 11.52s-4.906 11.947-13.866 11.947h-19.414zm0-44.8V328.68h17.28c8.107 0 12.374 3.84 12.374 10.667 0 6.613-4.48 10.88-12.374 10.88h-17.28zm124.159-46.08c-32.854 0-55.68 23.04-55.68 57.813s22.826 57.6 55.68 57.6c32.64 0 55.466-22.827 55.466-57.6 0-34.773-22.826-57.813-55.466-57.813zm-24.534 57.813c0-18.133 9.174-30.933 24.534-30.933 15.146 0 24.32 12.8 24.32 30.933 0 17.92-9.174 30.72-24.32 30.72-15.36 0-24.534-12.8-24.534-30.72zm192.815-55.253h-29.44l-42.666 64v-64h-30.507V417h29.44l42.667-64.427V417h30.506V306.707zm41.439 110.72h8.32c25.813 0 38.613-12.8 40.96-43.947l3.2-39.893h28.16V417h31.146V306.707h-86.826l-5.12 64.64c-.854 13.866-5.334 19.2-16 19.2h-3.84v26.88zm197.666-110.72l-24.32 70.826-24.533-70.826h-33.493l41.173 107.306-16.64 43.734h33.067l58.026-151.04h-33.28zm100.647 0v43.946c-4.26 2.134-9.38 3.414-15.35 3.414-13.02 0-20.49-6.827-20.49-20.907v-26.453h-30.928v29.653c0 30.933 19.198 44.373 42.028 44.373 10.03 0 18.34-2.133 24.74-5.333V417h31.15V306.707h-31.15zM1096.61 417h152.1V306.707h-30.93v83.413h-29.65v-83.413h-30.94v83.413h-29.44v-83.413h-31.14V417zm270.9-110.293h-29.44l-42.66 64v-64h-30.51V417h29.44l42.67-64.427V417h30.5V306.707zm10.33 55.68c0 35.84 22.19 57.173 55.68 57.173 31.36 0 46.08-18.773 49.07-34.133h-30.08c-1.49 4.266-7.68 9.6-18.35 9.6-14.93 0-24.96-10.454-24.96-23.894v-.426h74.46V360.04c0-34.133-20.27-55.893-51.84-55.893-32 0-53.98 22.186-53.98 58.24zm31.58-13.44c1.7-12.8 10.24-20.48 22.61-20.48s20.48 7.893 21.33 20.48h-43.94zM305.587 577v-48.853L341.427 577h36.266l-43.733-58.453 42.88-51.84h-35.2l-36.053 43.733v-43.733H274.44V577h31.147z" fill="#fff" fill-opacity=".7"/><path d="M443.378 503.827v5.12h-24.106c-28.16 0-45.227 13.013-45.227 35.626 0 22.187 17.067 34.987 38.4 34.987 14.293 0 25.813-5.547 32.64-14.507V577h28.8v-72.107c0-26.88-18.987-40.746-47.36-40.746-28.8 0-45.227 15.786-48.213 34.773h29.013c1.707-5.76 7.253-10.667 17.92-10.667 10.453 0 18.133 5.334 18.133 15.574zm-38.186 39.253c0-7.893 6.826-12.587 16.426-12.587h21.76v4.907c0 12.8-10.453 20.053-22.4 20.053-9.6 0-15.786-4.693-15.786-12.373zM520.087 577v-43.093h39.04V577h31.146V466.707h-31.146v40.32h-39.04v-40.32H488.94V577h31.147zm188.925-110.293h-29.44l-42.667 64v-64h-30.507V577h29.44l42.667-64.427V577h30.507V466.707zM756.462 577v-48.853L792.302 577h36.266l-43.733-58.453 42.88-51.84h-35.2l-36.053 43.733v-43.733h-31.147V577h31.147z" fill="#fff" fill-opacity=".7"/><path d="M902.117 466.707l-24.32 70.827-24.534-70.827H819.77l41.173 107.306-16.64 43.734h33.067l58.027-151.04h-33.28zm22.041 110.72h8.32c25.814 0 38.614-12.8 40.96-43.947l3.2-39.893h28.162V577h31.15V466.707h-86.832l-5.12 64.64c-.853 13.867-5.333 19.2-16 19.2h-3.84v26.88zm262.092-110.72h-30.51V577h30.51V466.707zM1052.07 577h49.7c26.03 0 42.24-17.067 42.24-39.68s-16-39.253-42.24-39.253h-18.98v-31.36h-30.72V577zm30.72-24.96v-29.013h15.14c9.6 0 15.58 5.76 15.58 14.293 0 8.32-5.98 14.72-15.58 14.72h-15.14zM274.44 737h53.76c27.093 0 40.96-13.653 40.96-31.36 0-15.147-9.6-23.68-20.267-26.667 8.747-3.2 16.214-11.093 16.214-23.68 0-16.426-12.587-28.586-38.187-28.586h-52.48V737zm30.507-21.973V691.56h19.413c8.96 0 13.867 4.054 13.867 11.52 0 7.467-4.907 11.947-13.867 11.947h-19.413zm0-44.8V648.68h17.28c8.106 0 12.373 3.84 12.373 10.667 0 6.613-4.48 10.88-12.373 10.88h-17.28zM545.76 685.16h-32.427c-1.92 11.093-12.373 25.173-32.64 25.173-22.4 0-37.12-19.626-37.12-48.426 0-29.654 15.36-48.427 36.907-48.427 18.773 0 29.227 11.733 32.64 24.96h32.427c-3.627-29.653-25.6-54.187-65.067-54.187-41.173 0-70.187 31.147-70.187 77.654 0 48.427 30.507 77.653 70.187 77.653 43.307 0 63.573-29.227 65.28-54.4zm60.553-61.013c-32.853 0-55.68 23.04-55.68 57.813s22.827 57.6 55.68 57.6c32.64 0 55.467-22.827 55.467-57.6 0-34.773-22.827-57.813-55.467-57.813zM581.78 681.96c0-18.133 9.173-30.933 24.533-30.933 15.147 0 24.32 12.8 24.32 30.933 0 17.92-9.173 30.72-24.32 30.72-15.36 0-24.533-12.8-24.533-30.72zm152.947-55.253v43.947c-4.267 2.133-9.387 3.413-15.36 3.413-13.014 0-20.48-6.827-20.48-20.907v-26.453h-30.934v29.653c0 30.934 19.2 44.373 42.027 44.373 10.027 0 18.347-2.133 24.747-5.333V737h31.146V626.707h-31.146zm150.035 0h-29.44l-42.667 64v-64h-30.507V737h29.44l42.667-64.427V737h30.507V626.707z" fill="#fff" fill-opacity=".7"/><path d="M1493 597.667c0 147.276-119.39 266.667-266.67 266.667-147.27 0-266.663-119.391-266.663-266.667C959.667 450.391 1079.06 331 1226.33 331 1373.61 331 1493 450.391 1493 597.667z" fill="#26334B"/><path d="M1093 864.334C1093 1011.61 973.609 1131 826.333 1131c-147.276 0-266.666-119.39-266.666-266.666s119.39-266.667 266.666-266.667S1093 717.058 1093 864.334z" fill="#26334B"/></g><defs><filter id="filter0_f_82_1594" x=".947" y=".147" width="1758.72" height="1397.52" filterUnits="userSpaceOnUse" color-interpolation-filters="sRGB"><feFlood flood-opacity="0" result="BackgroundImageFix"/><feBlend in="SourceGraphic" in2="BackgroundImageFix" result="shape"/><feGaussianBlur stdDeviation="133.333" result="effect1_foregroundBlur_82_1594"/></filter></defs></svg>