<svg width="34" height="34" viewBox="0 0 34 34" fill="none" xmlns="http://www.w3.org/2000/svg"><path fill-rule="evenodd" clip-rule="evenodd" d="M29.615 26.444a5.602 5.602 0 01-3.156 3.156c-1.874.743-5.955.702-8.602.675h-.001a121.65 121.65 0 00-1.182-.008c-.337 0-.728.003-1.158.008-2.648.025-6.753.064-8.627-.675a5.602 5.602 0 01-3.156-3.156c-.743-1.874-.702-5.955-.675-8.602.005-.44.009-.84.009-1.183 0-.337-.004-.728-.008-1.158-.026-2.647-.065-6.753.674-8.627A5.602 5.602 0 016.89 3.718c1.874-.743 5.955-.702 8.602-.675.44.005.84.009 1.183.009.337 0 .728-.004 1.158-.008 2.648-.026 6.753-.065 8.627.674a5.602 5.602 0 013.156 3.156c.743 1.874.702 5.955.675 8.603-.005.44-.009.839-.009 1.182 0 .344.005.744.009 1.183.027 2.649.068 6.734-.675 8.602zM8.163 16.66c0-4.71 3.8-8.51 8.511-8.51 4.711 0 8.511 3.8 8.511 8.51 0 4.711-3.8 8.511-8.511 8.511a8.498 8.498 0 01-8.511-8.51zm17.37-6.874a1.985 1.985 0 100-3.97 1.985 1.985 0 000 3.97z" fill="#fff"/><path d="M16.674 22.192a5.543 5.543 0 01-5.533-5.533 5.539 5.539 0 015.533-5.533 5.539 5.539 0 015.533 5.533 5.543 5.543 0 01-5.533 5.534z" fill="#fff"/><path fill-rule="evenodd" clip-rule="evenodd" d="M33.156 9.815c-.126-2.66-.734-5.015-2.682-6.956C28.534.92 26.178.311 23.518.178c-2.74-.156-10.955-.156-13.696 0C7.17.304 4.815.91 2.867 2.852.918 4.792.318 7.148.185 9.807.03 12.548.03 20.763.185 23.504c.126 2.659.733 5.014 2.682 6.955 1.948 1.94 4.296 2.548 6.955 2.682 2.74.155 10.956.155 13.697 0 2.659-.126 5.014-.734 6.955-2.682 1.94-1.94 2.548-4.296 2.682-6.955.155-2.741.155-10.949 0-13.69zm-3.541 16.63a5.602 5.602 0 01-3.156 3.155c-1.874.743-5.955.702-8.602.675h-.001a121.65 121.65 0 00-1.182-.008c-.337 0-.728.003-1.158.008-2.648.025-6.753.064-8.627-.675a5.602 5.602 0 01-3.156-3.156c-.743-1.874-.702-5.955-.675-8.602.005-.44.009-.84.009-1.183 0-.337-.004-.728-.008-1.158-.026-2.647-.065-6.753.674-8.627A5.602 5.602 0 016.89 3.718c1.874-.743 5.955-.702 8.602-.675.44.005.84.009 1.183.009.337 0 .728-.004 1.158-.008 2.648-.026 6.753-.065 8.627.674a5.602 5.602 0 013.156 3.156c.743 1.874.702 5.955.675 8.603-.005.44-.009.839-.009 1.182 0 .344.005.744.009 1.183.027 2.649.068 6.734-.675 8.602z" fill="#fff"/></svg>