<svg width="67" height="68" viewBox="0 0 67 68" fill="none" xmlns="http://www.w3.org/2000/svg"><path fill-rule="evenodd" clip-rule="evenodd" d="M59.23 53.556c-1.156 2.904-3.393 5.141-6.312 6.311-3.748 1.487-11.91 1.404-17.205 1.35h-.002c-.877-.008-1.676-.016-2.363-.016-.674 0-1.457.007-2.316.015-5.296.051-13.507.13-17.255-1.349-2.903-1.155-5.14-3.392-6.31-6.31-1.487-3.75-1.405-11.912-1.351-17.206.009-.878.017-1.678.017-2.365 0-.674-.007-1.457-.016-2.316-.05-5.296-.13-13.507 1.35-17.255 1.155-2.903 3.392-5.14 6.31-6.31C17.526 6.617 25.688 6.7 30.983 6.753c.878.009 1.678.017 2.365.017.674 0 1.456-.007 2.315-.016 5.296-.05 13.508-.13 17.255 1.35 2.904 1.155 5.14 3.392 6.311 6.31 1.487 3.749 1.404 11.911 1.35 17.206v.001c-.008.878-.016 1.677-.016 2.364 0 .687.008 1.487.017 2.365.053 5.298.136 13.47-1.35 17.205zm-42.904-19.57c0-9.422 7.6-17.022 17.022-17.022 9.422 0 17.022 7.6 17.022 17.022 0 9.422-7.6 17.022-17.022 17.022-9.422 0-17.022-7.6-17.022-17.022zm34.74-13.748a3.961 3.961 0 003.97-3.97 3.97 3.97 0 00-7.94 0 3.961 3.961 0 003.97 3.97z" fill="#26334B"/><path d="M33.348 45.053c-6.09 0-11.067-4.963-11.067-11.067s4.963-11.067 11.067-11.067 11.066 4.963 11.066 11.067-4.977 11.067-11.066 11.067z" fill="#26334B"/><path fill-rule="evenodd" clip-rule="evenodd" d="M66.31 20.297c-.251-5.319-1.466-10.03-5.362-13.911-3.882-3.882-8.593-5.096-13.911-5.363-5.482-.311-21.911-.311-27.393 0C14.34 1.275 9.63 2.49 5.733 6.37 1.837 10.252.637 14.964.37 20.282c-.31 5.482-.31 21.911 0 27.393.252 5.318 1.467 10.03 5.363 13.91 3.896 3.882 8.593 5.097 13.911 5.364 5.482.31 21.911.31 27.393 0 5.318-.252 10.03-1.467 13.91-5.363 3.882-3.882 5.097-8.593 5.364-13.911.31-5.482.31-21.897 0-27.378zm-7.08 33.26c-1.156 2.903-3.393 5.14-6.312 6.31-3.748 1.487-11.91 1.404-17.205 1.35h-.002c-.877-.008-1.676-.016-2.363-.016-.674 0-1.457.007-2.316.015-5.296.051-13.507.13-17.255-1.349-2.903-1.155-5.14-3.392-6.31-6.31-1.487-3.75-1.405-11.912-1.351-17.206.009-.878.017-1.678.017-2.365 0-.674-.007-1.457-.016-2.316-.05-5.296-.13-13.507 1.35-17.255 1.155-2.903 3.392-5.14 6.31-6.31C17.526 6.617 25.688 6.7 30.983 6.753c.878.009 1.678.017 2.365.017.674 0 1.456-.007 2.315-.016 5.296-.05 13.508-.13 17.255 1.35 2.904 1.155 5.14 3.392 6.311 6.31 1.487 3.749 1.404 11.911 1.35 17.206v.001c-.008.878-.016 1.677-.016 2.364 0 .687.008 1.487.017 2.365.053 5.298.136 13.47-1.35 17.205z" fill="#26334B"/></svg>