<svg width="34" height="34" viewBox="0 0 34 34" fill="none" xmlns="http://www.w3.org/2000/svg"><g clip-path="url(#clip0_35_1734)" fill="#fff" fill-opacity=".7"><path fill-rule="evenodd" clip-rule="evenodd" d="M30.282 27.11a5.602 5.602 0 01-3.156 3.156c-1.874.744-5.955.702-8.603.675-.439-.004-.839-.008-1.182-.008-.337 0-.729.004-1.158.008-2.648.025-6.754.065-8.627-.675A5.602 5.602 0 014.4 27.111c-.743-1.875-.702-5.956-.675-8.603.004-.44.008-.839.008-1.183 0-.337-.003-.728-.008-1.157C3.7 13.52 3.661 9.414 4.4 7.54a5.602 5.602 0 013.156-3.155c1.874-.744 5.955-.702 8.602-.675.44.004.84.008 1.183.008.337 0 .728-.004 1.158-.008 2.647-.025 6.753-.065 8.627.675a5.602 5.602 0 013.155 3.155c.744 1.875.703 5.956.676 8.603-.005.439-.009.839-.009 1.182 0 .344.004.744.009 1.183.026 2.649.068 6.735-.675 8.603zM8.83 17.326c0-4.71 3.8-8.51 8.51-8.51 4.712 0 8.512 3.8 8.512 8.51 0 4.712-3.8 8.512-8.511 8.512a8.498 8.498 0 01-8.511-8.512zm17.37-6.874a1.985 1.985 0 100-3.97 1.985 1.985 0 000 3.97z"/><path d="M17.34 22.859a5.543 5.543 0 01-5.533-5.534 5.539 5.539 0 015.534-5.533 5.539 5.539 0 015.533 5.533 5.543 5.543 0 01-5.533 5.534z"/><path fill-rule="evenodd" clip-rule="evenodd" d="M33.822 10.481c-.126-2.66-.733-5.015-2.681-6.956C29.2 1.585 26.844.977 24.185.844 21.445.688 13.23.688 10.49.844c-2.653.126-5.01.733-6.957 2.674C1.585 5.458.985 7.814.852 10.474c-.156 2.74-.156 10.955 0 13.696.126 2.66.733 5.015 2.681 6.955 1.948 1.941 4.297 2.549 6.956 2.682 2.74.155 10.955.155 13.696 0 2.66-.126 5.015-.733 6.956-2.682 1.94-1.94 2.548-4.296 2.681-6.955.156-2.74.156-10.948 0-13.689zm-3.54 16.63a5.602 5.602 0 01-3.156 3.155c-1.874.744-5.956.702-8.603.675-.439-.004-.839-.008-1.182-.008-.337 0-.729.004-1.158.008-2.648.025-6.754.065-8.628-.675A5.602 5.602 0 014.4 27.111c-.743-1.875-.702-5.956-.675-8.603.004-.44.008-.839.008-1.183 0-.337-.004-.728-.008-1.157C3.7 13.52 3.661 9.414 4.4 7.54a5.602 5.602 0 013.155-3.155c1.875-.744 5.956-.702 8.603-.675.44.004.839.008 1.183.008.337 0 .728-.004 1.157-.008 2.648-.025 6.754-.065 8.628.675A5.602 5.602 0 0130.28 7.54c.744 1.874.702 5.956.676 8.603-.005.439-.009.839-.009 1.182 0 .344.004.744.009 1.183.026 2.649.068 6.735-.676 8.603z"/></g><defs><clipPath id="clip0_35_1734"><path fill="#fff" d="M0 0h34v34H0z"/></clipPath></defs></svg>