<svg width="26" height="26" viewBox="0 0 26 26" fill="none" xmlns="http://www.w3.org/2000/svg">
<path fill-rule="evenodd" clip-rule="evenodd" d="M22.711 20.3334C22.2777 21.4223 21.4388 22.2612 20.3443 22.7001C18.9387 23.2576 15.8778 23.2266 13.8924 23.2064C13.8922 23.2064 13.892 23.2064 13.8918 23.2064C13.5626 23.2031 13.263 23.2001 13.0054 23.2001C12.7526 23.2001 12.4592 23.2029 12.1371 23.206C10.1512 23.225 7.07189 23.2546 5.66655 22.7001C4.57766 22.2667 3.73877 21.4278 3.29988 20.3334C2.74238 18.9277 2.77339 15.8669 2.79351 13.8814C2.79684 13.552 2.79988 13.2522 2.79988 12.9945C2.79988 12.7417 2.79707 12.4483 2.79398 12.1262C2.77493 10.1403 2.74539 7.06097 3.29988 5.65562C3.73321 4.56673 4.5721 3.72784 5.66655 3.28895C7.07222 2.73145 10.1331 2.76246 12.1185 2.78258C12.4479 2.78592 12.7477 2.78895 13.0054 2.78895C13.2582 2.78895 13.5516 2.78614 13.8738 2.78305C15.8597 2.764 18.939 2.73446 20.3443 3.28895C21.4332 3.72229 22.2721 4.56118 22.711 5.65562C23.2685 7.06129 23.2375 10.1222 23.2174 12.1076C23.2174 12.1078 23.2174 12.1079 23.2174 12.1081C23.214 12.4373 23.211 12.7369 23.211 12.9945C23.211 13.2522 23.214 13.552 23.2174 13.8815V13.8816C23.2375 15.868 23.2685 18.9324 22.711 20.3334ZM6.6221 12.9945C6.6221 9.46118 9.4721 6.61118 13.0054 6.61118C16.5388 6.61118 19.3888 9.46118 19.3888 12.9945C19.3888 16.5278 16.5388 19.3778 13.0054 19.3778C9.4721 19.3778 6.6221 16.5278 6.6221 12.9945ZM19.6499 7.83895C20.4721 7.83895 21.1388 7.17784 21.1388 6.35006C21.1388 5.52784 20.4721 4.86118 19.6499 4.86118C18.8277 4.86118 18.161 5.52784 18.161 6.35006C18.161 7.17229 18.8221 7.83895 19.6499 7.83895Z" fill="#26334B"/>
<path d="M13.0054 17.1445C10.7221 17.1445 8.85544 15.2834 8.85544 12.9945C8.85544 10.7056 10.7165 8.84451 13.0054 8.84451C15.2943 8.84451 17.1554 10.7056 17.1554 12.9945C17.1554 15.2834 15.2888 17.1445 13.0054 17.1445Z" fill="#26334B"/>
<path fill-rule="evenodd" clip-rule="evenodd" d="M25.3665 7.86118C25.2721 5.86673 24.8165 4.10006 23.3554 2.64451C21.8999 1.18895 20.1332 0.733398 18.1388 0.633398C16.0832 0.516732 9.9221 0.516732 7.86655 0.633398C5.87766 0.727843 4.11099 1.1834 2.64988 2.63895C1.18877 4.09451 0.73877 5.86118 0.63877 7.85562C0.522103 9.91118 0.522103 16.0723 0.63877 18.1278C0.733214 20.1223 1.18877 21.889 2.64988 23.3445C4.11099 24.8001 5.8721 25.2556 7.86655 25.3556C9.9221 25.4723 16.0832 25.4723 18.1388 25.3556C20.1332 25.2612 21.8999 24.8056 23.3554 23.3445C24.811 21.889 25.2665 20.1223 25.3665 18.1278C25.4832 16.0723 25.4832 9.91673 25.3665 7.86118ZM22.711 20.3334C22.2777 21.4223 21.4388 22.2612 20.3443 22.7001C18.9387 23.2576 15.8778 23.2266 13.8924 23.2064L13.8918 23.2064C13.5626 23.2031 13.263 23.2001 13.0054 23.2001C12.7526 23.2001 12.4592 23.2029 12.1371 23.206C10.1512 23.225 7.07189 23.2546 5.66655 22.7001C4.57766 22.2667 3.73877 21.4278 3.29988 20.3334C2.74238 18.9277 2.77339 15.8669 2.79351 13.8814C2.79684 13.552 2.79988 13.2522 2.79988 12.9945C2.79988 12.7417 2.79707 12.4483 2.79398 12.1262C2.77493 10.1403 2.74539 7.06097 3.29988 5.65562C3.73321 4.56673 4.5721 3.72784 5.66655 3.28895C7.07222 2.73145 10.1331 2.76246 12.1185 2.78258C12.4479 2.78592 12.7477 2.78895 13.0054 2.78895C13.2582 2.78895 13.5516 2.78614 13.8738 2.78305C15.8597 2.764 18.939 2.73446 20.3443 3.28895C21.4332 3.72229 22.2721 4.56118 22.711 5.65562C23.2685 7.06129 23.2375 10.1222 23.2174 12.1076L23.2174 12.1081C23.214 12.4373 23.211 12.7369 23.211 12.9945C23.211 13.2522 23.214 13.552 23.2174 13.8815V13.8816C23.2375 15.868 23.2685 18.9324 22.711 20.3334Z" fill="#26334B"/>
</svg>
