<svg width="25" height="29" viewBox="0 0 25 29" fill="none" xmlns="http://www.w3.org/2000/svg">
<path d="M24.8817 11.6617C22.4358 11.6675 20.05 10.9047 18.0611 9.48111V19.41C18.0604 21.2489 17.4984 23.0438 16.45 24.5547C15.4017 26.0656 13.9171 27.2204 12.1948 27.8647C10.4724 28.5091 8.59439 28.6122 6.81182 28.1604C5.02925 27.7086 3.4271 26.7234 2.2196 25.3364C1.0121 23.9495 0.256802 22.2269 0.0547068 20.3991C-0.147388 18.5713 0.213349 16.7254 1.08868 15.1081C1.96402 13.4909 3.31223 12.1794 4.95304 11.3491C6.59385 10.5188 8.44904 10.2092 10.2706 10.4617V15.4556C9.43703 15.1934 8.54197 15.2013 7.71319 15.4781C6.88442 15.755 6.16432 16.2866 5.65572 16.9971C5.14712 17.7077 4.87604 18.5607 4.88119 19.4345C4.88634 20.3083 5.16745 21.1581 5.68438 21.8626C6.20131 22.5671 6.92763 23.0902 7.7596 23.3573C8.59158 23.6243 9.48667 23.6217 10.3171 23.3497C11.1474 23.0777 11.8707 22.5503 12.3834 21.8428C12.8962 21.1352 13.1722 20.2838 13.1722 19.41V0H18.0611C18.0577 0.412856 18.0923 0.825148 18.1644 1.23167C18.3343 2.13916 18.6876 3.00245 19.2025 3.76874C19.7175 4.53503 20.3834 5.18822 21.1594 5.68833C22.2636 6.41838 23.558 6.8075 24.8817 6.80722V11.6617Z" fill="#26334B"/>
</svg>
