<svg width="25" height="25" viewBox="0 0 25 25" fill="none" xmlns="http://www.w3.org/2000/svg">
<path d="M1.74948 1.74948C0 3.49896 0 6.31506 0 11.9467V12.9422C0 18.5738 0 21.3899 1.74948 23.1394C3.49896 24.8889 6.31506 24.8889 11.9467 24.8889H12.9422C18.5738 24.8889 21.3899 24.8889 23.1394 23.1394C24.8889 21.3899 24.8889 18.5738 24.8889 12.9422V11.9467C24.8889 6.31506 24.8889 3.49896 23.1394 1.74948C21.3899 0 18.5738 0 12.9422 0H11.9467C6.31506 0 3.49896 0 1.74948 1.74948ZM4.2 7.57039H7.0415C7.13483 12.32 9.22961 14.3318 10.8889 14.7467V7.57039H13.5644V11.6667C15.2029 11.4904 16.9244 9.62372 17.5052 7.57039H20.1807C19.9618 8.63528 19.5256 9.6435 18.8992 10.5322C18.2729 11.4208 17.4701 12.1706 16.5407 12.7348C17.5783 13.2499 18.4948 13.9794 19.2296 14.8751C19.9643 15.7707 20.5006 16.8121 20.8029 17.9304H17.8578C17.5864 16.959 17.0341 16.0894 16.2703 15.4308C15.5065 14.7722 14.5652 14.3538 13.5644 14.2282V17.9304H13.2429C7.57039 17.9304 4.33482 14.0415 4.2 7.57039Z" fill="#26334B"/>
</svg>
