<svg width="31" height="22" viewBox="0 0 31 22" fill="none" xmlns="http://www.w3.org/2000/svg">
<path d="M29.7068 3.33794C29.3578 2.02406 28.3297 0.989278 27.0243 0.638111C24.6582 0 15.1704 0 15.1704 0C15.1704 0 5.68261 0 3.31644 0.638111C2.01106 0.989333 0.982944 2.02406 0.634 3.33794C0 5.71944 0 10.6882 0 10.6882C0 10.6882 0 15.657 0.634 18.0385C0.982944 19.3524 2.01106 20.3441 3.31644 20.6952C5.68261 21.3333 15.1704 21.3333 15.1704 21.3333C15.1704 21.3333 24.6582 21.3333 27.0243 20.6952C28.3297 20.3441 29.3578 19.3524 29.7068 18.0385C30.3408 15.657 30.3408 10.6882 30.3408 10.6882C30.3408 10.6882 30.3408 5.71944 29.7068 3.33794ZM12.0673 15.1995V6.17694L19.9973 10.6883L12.0673 15.1995Z" fill="#26334B"/>
</svg>
