<svg width="25" height="25" viewBox="0 0 25 25" fill="none" xmlns="http://www.w3.org/2000/svg"><path d="M1.75 1.75C0 3.498 0 6.314 0 11.946v.995c0 5.632 0 8.448 1.75 10.197 1.749 1.75 4.565 1.75 10.197 1.75h.995c5.632 0 8.448 0 10.197-1.75 1.75-1.75 1.75-4.565 1.75-10.197v-.995c0-5.632 0-8.448-1.75-10.198C21.39 0 18.574 0 12.942 0h-.995C6.315 0 3.499 0 1.749 1.75zM4.2 7.57h2.841c.094 4.75 2.189 6.762 3.848 7.177V7.57h2.675v4.097c1.639-.177 3.36-2.043 3.941-4.097h2.676a7.903 7.903 0 01-3.64 5.165 8.186 8.186 0 014.262 5.195h-2.945a5.12 5.12 0 00-4.294-3.702v3.702h-.321c-5.673 0-8.908-3.889-9.043-10.36z" fill="#26334B"/></svg>