<svg width="26" height="26" viewBox="0 0 26 26" fill="none" xmlns="http://www.w3.org/2000/svg"><path fill-rule="evenodd" clip-rule="evenodd" d="M22.711 20.333a4.201 4.201 0 01-2.367 2.367c-1.405.558-4.466.527-6.452.506-.33-.003-.629-.006-.887-.006-.252 0-.546.003-.868.006-1.986.019-5.065.049-6.47-.506A4.202 4.202 0 013.3 20.333c-.558-1.405-.527-4.466-.506-6.452.003-.329.006-.629.006-.886 0-.253-.003-.547-.006-.869-.02-1.986-.049-5.065.506-6.47a4.202 4.202 0 012.367-2.367c1.405-.558 4.466-.527 6.451-.506.33.003.63.006.887.006.253 0 .547-.003.869-.006 1.986-.019 5.065-.049 6.47.506a4.202 4.202 0 012.367 2.367c.558 1.405.527 4.466.506 6.452-.003.33-.006.629-.006.886 0 .258.003.558.006.888.02 1.986.052 5.05-.506 6.451zM6.622 12.995a6.373 6.373 0 016.383-6.384 6.373 6.373 0 016.384 6.384 6.373 6.373 0 01-6.384 6.383 6.373 6.373 0 01-6.383-6.383zM19.65 7.839a1.489 1.489 0 100-2.978 1.489 1.489 0 000 2.978z" fill="#26334B"/><path d="M13.005 17.145a4.158 4.158 0 01-4.15-4.15 4.154 4.154 0 014.15-4.15 4.154 4.154 0 014.15 4.15 4.157 4.157 0 01-4.15 4.15z" fill="#26334B"/><path fill-rule="evenodd" clip-rule="evenodd" d="M25.366 7.861c-.094-1.994-.55-3.76-2.01-5.216C21.9 1.189 20.132.733 18.138.633 16.083.517 9.922.517 7.867.633c-1.99.095-3.756.55-5.217 2.006C1.189 4.095.739 5.86.639 7.856c-.117 2.055-.117 8.216 0 10.272.094 1.994.55 3.761 2.01 5.216 1.462 1.456 3.223 1.912 5.218 2.012 2.055.116 8.216.116 10.272 0 1.994-.095 3.76-.55 5.216-2.012 1.456-1.455 1.912-3.222 2.011-5.216.117-2.056.117-8.211 0-10.267zm-2.655 12.472a4.201 4.201 0 01-2.367 2.367c-1.405.558-4.466.527-6.452.506-.33-.003-.629-.006-.887-.006-.252 0-.546.003-.868.006-1.986.019-5.065.049-6.47-.506A4.202 4.202 0 013.3 20.333c-.558-1.405-.527-4.466-.506-6.452.003-.329.006-.629.006-.886 0-.253-.003-.547-.006-.869-.02-1.986-.049-5.065.506-6.47a4.202 4.202 0 012.367-2.367c1.405-.558 4.466-.527 6.451-.506.33.003.63.006.887.006.253 0 .547-.003.869-.006 1.986-.019 5.065-.049 6.47.506a4.202 4.202 0 012.367 2.367c.558 1.405.527 4.466.506 6.452-.003.33-.006.629-.006.886 0 .258.003.558.006.888.02 1.986.052 5.05-.506 6.451z" fill="#26334B"/></svg>